<svg width="276" height="361" viewBox="0 0 276 361" fill="none" xmlns="http://www.w3.org/2000/svg">
<path d="M105.101 17.1177C104.395 16.401 104.204 15.8743 104.149 14.7462C100.133 40.4624 99.812 53.6599 97.4892 78.3051H108.906C109.117 78.3051 109.601 78.3255 110.333 78.3647C122.808 79.0316 207.533 85.1298 250.668 88.2658H253.363C255.742 77.9893 262.402 31.5059 263.512 24.2326C255.289 23.5196 166.373 19.5414 114.615 17.4892C111.278 17.3569 108.097 17.2326 105.101 17.1177Z" fill="#FA6396"/>
<path d="M161.234 174.118L177.884 168.9L178.831 161.311L117.201 151.929C116.505 152.53 115.507 152.988 114.139 153.248C107.118 154.581 56.7693 162.482 24.2299 168.9L48.9668 172.654L119.848 183.411L145.06 187.237L161.752 189.77C159.172 185.356 156.794 176.648 161.234 174.118Z" fill="#FA6396"/>
<path d="M274.439 21.5657C274.241 22.8582 271.867 24.9569 263.512 24.2326C262.402 31.5059 255.742 77.9893 253.363 88.2658H266.366C271.44 47.1585 271.012 43.8383 274.439 21.5657Z" fill="#DD447D"/>
<path d="M108.906 78.3051H97.4892L4.24999 87.3171C-2.09345 89.3729 -1.06056 100.757 5.51804 100.757C14.3975 100.757 15.3488 100.282 16.9351 100.282L16.6185 150.724C19.8656 149.889 23.9136 149.05 28.5112 148.222C28.5112 147.31 27.8769 114.828 27.5598 98.7008L97.4892 93.0089L96.0621 139.576C100.097 139.178 103.792 138.831 107.003 138.544L110.333 78.3647C109.601 78.3255 109.117 78.3051 108.906 78.3051Z" fill="#462941"/>
<path d="M24.2299 168.9C23.4264 169.059 22.6333 169.213 21.8513 169.364L103.697 246.578C107.303 243.217 110.915 239.849 114.503 236.503C90.4779 212.968 67.0402 190.163 48.9668 172.654L24.2299 168.9Z" fill="#462941"/>
<path d="M138.206 259.775L127.927 269.438L136.859 277.865C140.223 274.809 143.645 271.697 147.106 268.544C144.161 265.639 141.191 262.713 138.206 259.775Z" fill="#462941"/>
<path d="M113.46 255.789L124.541 246.344C121.192 243.058 117.842 239.773 114.503 236.503C110.915 239.849 107.303 243.217 103.697 246.578L113.46 255.789Z" fill="#462941"/>
<path d="M26.4493 325.585C24.0708 329.379 28.8279 335.545 35.4878 331.592L113.46 255.789L103.697 246.578C64.762 282.871 27.9322 323.219 26.4493 325.585Z" fill="#462941"/>
<path d="M61.811 331.592C61.9695 334.438 63.809 339.466 69.898 336.81C72.8981 335.501 101.735 309.77 136.859 277.865L127.927 269.438L61.811 331.592Z" fill="#462941"/>
<path d="M127.927 269.438L138.206 259.775C133.676 255.315 129.11 250.828 124.541 246.344L113.46 255.789L127.927 269.438Z" fill="#462941"/>
<path d="M174.791 243.263L165.98 233.665L138.206 259.775C141.191 262.713 144.161 265.639 147.106 268.544C156.16 260.299 165.491 251.777 174.791 243.263Z" fill="#462941"/>
<path d="M154.319 220.962L143.633 209.322C134.525 217.825 124.605 227.082 114.503 236.503C117.842 239.773 121.192 243.058 124.541 246.344L154.319 220.962Z" fill="#462941"/>
<path d="M186.139 232.866C183.164 229.544 180.214 226.254 177.308 223.016L165.98 233.665L174.791 243.263C178.586 239.789 182.375 236.317 186.139 232.866Z" fill="#462941"/>
<path d="M145.06 187.237L119.848 183.411L143.633 209.322C147.678 205.546 151.563 201.918 155.232 198.491C151.641 194.512 148.233 190.742 145.06 187.237Z" fill="#462941"/>
<path d="M166.29 210.759L154.319 220.962L165.98 233.665L177.308 223.016C173.55 218.83 169.864 214.73 166.29 210.759Z" fill="#462941"/>
<path d="M244.008 179.595C236.101 181.303 226.742 183.326 217.368 185.356L177.308 223.016C180.214 226.254 183.164 229.544 186.139 232.866C207.546 213.236 228.115 194.285 244.008 179.595Z" fill="#462941"/>
<path d="M188.826 191.551C182.141 193.006 176.684 194.988 173.127 194.988C166.29 194.988 164.534 194.508 162.661 191.551C160.305 193.752 157.822 196.072 155.232 198.491C158.757 202.396 162.46 206.503 166.29 210.759L188.826 191.551Z" fill="#462941"/>
<path d="M224.98 361C227.2 361 231.64 359.862 231.64 355.308C231.64 352.719 192.269 313.095 147.106 268.544C143.645 271.697 140.223 274.809 136.859 277.865L224.98 361Z" fill="#462941"/>
<path d="M265.891 342.502C269.696 342.818 277.022 342.122 275.881 336.81C275.042 332.906 228.094 279.71 186.139 232.866C182.375 236.317 178.586 239.789 174.791 243.263L265.891 342.502Z" fill="#462941"/>
<path d="M265.732 13.0074L263.512 24.2326C271.867 24.9569 274.241 22.8582 274.439 21.5657L274.453 21.3866L275.721 12.0588C276.514 3.52104 266.048 6.52547 265.732 13.0074Z" fill="#462941"/>
<path d="M111.601 138.228L107.003 138.544C103.792 138.831 100.097 139.178 96.0621 139.576C75.9987 141.555 47.5445 144.794 28.5112 148.222C23.9136 149.05 19.8656 149.889 16.6185 150.724C15.1872 151.092 18.9852 150.043 17.8865 150.408C4.56663 154.835 7.42089 170.007 17.8865 170.007C20.9227 169.408 18.2564 170.056 21.8513 169.364C22.6333 169.213 23.4264 169.059 24.2299 168.9C56.7693 162.482 107.118 154.581 114.139 153.248C115.507 152.988 116.505 152.53 117.201 151.929C120.574 149.02 117.31 138.228 111.601 138.228Z" fill="#462941"/>
<path d="M104.149 14.7462C104.204 15.8743 104.395 16.401 105.101 17.1177C108.097 17.2326 111.278 17.3569 114.615 17.4892C114.932 16.2586 115.254 11.712 114.931 4.46965C114.615 -2.64518 104.942 -0.589584 104.941 5.89244L104.149 14.7462Z" fill="#462941"/>
<path d="M266.366 88.2658H253.363L251.936 96.0134L171.7 107.239C168.37 110.717 163.708 118.717 171.7 122.891L183.831 121.215L195.961 119.539L250.668 111.982L244.008 154.196L191.996 165.739L195.961 119.539L183.831 121.215L178.831 161.311L177.884 168.9L161.234 174.118C156.794 176.648 159.172 185.356 161.752 189.77C162.01 190.402 162.312 190.999 162.661 191.551C164.534 194.508 166.29 194.988 173.127 194.988C176.684 194.988 182.141 193.006 188.826 191.551C197.161 189.736 207.273 187.542 217.368 185.356C226.742 183.326 236.101 181.303 244.008 179.595C247.704 178.796 251.4 176.328 254.315 175.699C261.926 172.379 264.559 163.493 255.425 157.042L266.366 88.2658Z" fill="#462941"/>
<path d="M143.633 209.322L154.319 220.962L166.29 210.759C162.46 206.503 158.757 202.396 155.232 198.491C151.563 201.918 147.678 205.546 143.633 209.322Z" fill="#462941"/>
</svg>
