<svg width="422" height="611" viewBox="0 0 422 611" fill="none" xmlns="http://www.w3.org/2000/svg">
<path d="M268.146 128.262H342.159V124.941V49.0301C342.159 46.5986 341.989 44.5618 341.694 42.8623C341.527 42.3634 341.388 41.7792 341.35 41.2373C340.738 38.8291 339.835 37.2675 338.838 36.3036C337.222 34.7407 335.36 34.75 334.094 35.2713C315.591 36.2202 276.971 38.1179 270.519 38.1179C266.35 38.1179 264.861 41.155 264.543 44.2856C264.369 46.0002 264.545 47.7429 264.825 49.0301C264.983 69.5892 265.205 112.131 264.825 117.824C264.77 118.648 264.774 119.429 264.825 120.165C265.126 124.517 267.064 127.315 268.146 128.262Z" fill="#8C5666"/>
<path d="M270.519 38.1179C276.971 38.1179 315.591 36.2202 334.094 35.2713C335.36 34.75 337.222 34.7407 338.838 36.3036C337.895 34.8708 337.704 34.6165 336.457 32.7364C330.386 23.5817 320.637 9.00049 317.488 4.90697C313.693 -0.0272156 310.846 -0.31188 309.897 0.162561C293.766 0.637002 259.796 1.77566 252.964 2.53477C246.132 3.29387 247.904 8.54435 249.643 11.0747L270.519 38.1179Z" fill="#733553"/>
<path d="M264.825 117.824C265.205 112.131 264.983 69.5892 264.825 49.0301C264.545 47.7429 264.369 46.0002 264.543 44.2856L221.651 35.2713C219.437 34.955 215.104 36.315 215.483 44.2856C215.863 52.2562 215.325 102.326 215.009 126.364C214.851 127.629 216.717 129.78 225.447 128.262C234.176 126.743 255.336 122.231 264.825 120.165C264.774 119.429 264.77 118.648 264.825 117.824Z" fill="#733553"/>
<path d="M342.159 128.262H268.146C265.142 133.006 257.329 144.488 250.118 152.458C242.906 160.429 249.327 163.37 253.439 163.845C266.723 164.003 295.759 164.224 305.627 163.845C315.496 163.465 322.391 157.677 324.605 154.83L332.442 142.969L334.094 140.469L342.159 128.262Z" fill="#733553"/>
<path d="M341.694 42.8623C341.989 44.5618 342.159 46.5986 342.159 49.0301V124.941C344.437 125.32 356.709 111.498 362.56 104.54L361.611 55.1978C357.816 51.4023 349.181 43.147 345.006 40.4901C341.928 38.5318 341.243 39.7181 341.35 41.2373C341.478 41.7411 341.593 42.2821 341.694 42.8623Z" fill="#733553"/>
<path d="M345.006 40.4901C349.181 43.147 357.816 51.4023 361.611 55.1978L362.56 104.54C356.709 111.498 344.437 125.32 342.159 124.941V128.262L334.094 140.469C341.685 140.366 344.531 139.563 345.006 139.174C358.875 136.105 369.347 131.989 377.268 127.153V80.3432C380.273 77.1802 386.472 72.7521 387.231 80.3432C387.76 85.6275 387.092 104.093 386.318 120.376C406.672 101.53 403.353 87.2972 402.413 75.5988C400.862 56.2889 380.905 46.6578 369.677 44.2856C358.756 33.6853 341.694 33.2109 336.457 32.7364C337.704 34.6165 337.895 34.8708 338.838 36.3036C339.835 37.2675 340.738 38.8291 341.35 41.2373C341.243 39.7181 341.928 38.5318 345.006 40.4901Z" fill="#5F334E"/>
<path d="M377.268 140.469C373.463 155.617 352.785 166.281 345.051 165.017L345.065 172.859C376.615 173.618 385.056 150.719 385.333 139.174C385.622 134.176 385.98 127.484 386.318 120.376C383.748 122.756 380.755 125.024 377.268 127.153V140.469Z" fill="#4C2C46"/>
<path d="M387.231 80.3432C386.472 72.7521 380.273 77.1802 377.268 80.3432V127.153C380.755 125.024 383.748 122.756 386.318 120.376C387.092 104.093 387.76 85.6275 387.231 80.3432Z" fill="#4C2C46"/>
<path d="M345.006 139.174C344.531 139.563 341.685 140.366 334.094 140.469L332.442 142.969V231.69V409.605C329.671 410.712 324.7 417.671 326.977 436.648C328.514 438.063 331.488 438.939 334.559 439.895C337.58 440.836 339.851 441.12 343.574 439.895C345.802 439.162 348.915 438.646 351.174 436.648C352.281 430.006 352.692 415.299 345.48 409.605L345.065 172.859L345.051 165.017L345.006 139.174Z" fill="#4C2C46"/>
<path d="M331.238 558.297C332.178 564.776 342.588 567.469 344.522 558.297C345.698 552.724 346.199 525.406 345.471 497.214C345.371 493.323 345.594 491.17 345.471 487.251C344.922 469.755 344.2 452.481 343.574 439.895C339.851 441.12 337.58 440.836 334.559 439.895L333.136 486.302L332.811 495.318L331.238 558.297Z" fill="#4C2C46"/>
<path d="M351.174 436.648C348.915 438.646 345.802 439.162 343.574 439.895L367.726 483.618L373.134 493.581L410.479 562.375C414.274 565.064 421.865 568.164 421.865 559.054C421.865 549.945 374.738 473.655 351.174 436.648Z" fill="#4C2C46"/>
<path d="M367.726 483.618L345.471 487.251C345.594 491.17 345.371 493.323 345.471 497.214L373.134 493.581L367.726 483.618Z" fill="#4C2C46"/>
<path d="M333.136 486.302L311.081 481.72C309.385 484.722 307.679 487.736 305.977 490.735L332.811 495.318L333.136 486.302Z" fill="#4C2C46"/>
<path d="M326.977 436.648L259.606 544.821C258.649 548.454 266.818 553.361 270.993 549.565C273.562 547.23 289.557 519.677 305.977 490.735C307.679 487.736 309.385 484.722 311.081 481.72C319.617 466.611 328.368 451.038 334.559 439.895C331.488 438.939 328.514 438.063 326.977 436.648Z" fill="#4C2C46"/>
<ellipse cx="302.297" cy="83.0271" rx="30.3642" ry="36.532" fill="#FDCFA6"/>
<ellipse cx="302.297" cy="83.5016" rx="20.8754" ry="28.4665" fill="#FDEECE"/>
<path d="M105.101 267.118C104.395 266.401 104.204 265.874 104.149 264.746C100.133 290.462 99.812 303.66 97.4892 328.305H108.906C109.117 328.305 109.601 328.326 110.333 328.365C122.808 329.032 207.533 335.13 250.668 338.266H253.363C255.742 327.989 262.402 281.506 263.512 274.233C255.289 273.52 166.373 269.541 114.615 267.489C111.278 267.357 108.097 267.233 105.101 267.118Z" fill="#FA6396"/>
<path d="M161.234 424.118L177.884 418.9L178.831 411.311L117.201 401.929C116.505 402.53 115.507 402.988 114.139 403.248C107.118 404.581 56.7693 412.482 24.2299 418.9L48.9668 422.654L119.848 433.411L145.06 437.237L161.752 439.77C159.172 435.356 156.794 426.648 161.234 424.118Z" fill="#FA6396"/>
<path d="M274.439 271.566C274.241 272.858 271.867 274.957 263.512 274.233C262.402 281.506 255.742 327.989 253.363 338.266H266.366C271.44 297.159 271.012 293.838 274.439 271.566Z" fill="#DD447D"/>
<path d="M108.906 328.305H97.4892L4.24999 337.317C-2.09345 339.373 -1.06056 350.757 5.51804 350.757C14.3975 350.757 15.3488 350.282 16.9351 350.282L16.6185 400.724C19.8656 399.889 23.9136 399.05 28.5112 398.222C28.5112 397.31 27.8769 364.828 27.5598 348.701L97.4892 343.009L96.0621 389.576C100.097 389.178 103.792 388.831 107.003 388.544L110.333 328.365C109.601 328.326 109.117 328.305 108.906 328.305Z" fill="#462941"/>
<path d="M24.2299 418.9C23.4264 419.059 22.6333 419.213 21.8513 419.364L103.697 496.578C107.303 493.217 110.915 489.849 114.503 486.503C90.4779 462.968 67.0402 440.163 48.9668 422.654L24.2299 418.9Z" fill="#462941"/>
<path d="M138.206 509.775L127.927 519.438L136.859 527.865C140.223 524.809 143.645 521.697 147.106 518.544C144.161 515.639 141.191 512.713 138.206 509.775Z" fill="#462941"/>
<path d="M113.46 505.789L124.541 496.344C121.192 493.058 117.842 489.773 114.503 486.503C110.915 489.849 107.303 493.217 103.697 496.578L113.46 505.789Z" fill="#462941"/>
<path d="M26.4493 575.585C24.0708 579.379 28.8279 585.545 35.4878 581.592L113.46 505.789L103.697 496.578C64.762 532.871 27.9322 573.219 26.4493 575.585Z" fill="#462941"/>
<path d="M61.811 581.592C61.9695 584.438 63.809 589.466 69.898 586.81C72.8981 585.501 101.735 559.77 136.859 527.865L127.927 519.438L61.811 581.592Z" fill="#462941"/>
<path d="M127.927 519.438L138.206 509.775C133.676 505.315 129.11 500.828 124.541 496.344L113.46 505.789L127.927 519.438Z" fill="#462941"/>
<path d="M174.791 493.263L165.98 483.665L138.206 509.775C141.191 512.713 144.161 515.639 147.106 518.544C156.16 510.299 165.491 501.777 174.791 493.263Z" fill="#462941"/>
<path d="M154.319 470.962L143.633 459.322C134.525 467.825 124.605 477.082 114.503 486.503C117.842 489.773 121.192 493.058 124.541 496.344L154.319 470.962Z" fill="#462941"/>
<path d="M186.139 482.866C183.164 479.544 180.214 476.254 177.308 473.016L165.98 483.665L174.791 493.263C178.586 489.789 182.375 486.317 186.139 482.866Z" fill="#462941"/>
<path d="M145.06 437.237L119.848 433.411L143.633 459.322C147.678 455.546 151.563 451.918 155.232 448.491C151.641 444.512 148.233 440.742 145.06 437.237Z" fill="#462941"/>
<path d="M166.29 460.759L154.319 470.962L165.98 483.665L177.308 473.016C173.55 468.83 169.864 464.73 166.29 460.759Z" fill="#462941"/>
<path d="M244.008 429.595C236.101 431.303 226.742 433.326 217.368 435.356L177.308 473.016C180.214 476.254 183.164 479.544 186.139 482.866C207.546 463.236 228.115 444.285 244.008 429.595Z" fill="#462941"/>
<path d="M188.826 441.551C182.141 443.006 176.684 444.988 173.127 444.988C166.29 444.988 164.534 444.508 162.661 441.551C160.305 443.752 157.822 446.072 155.232 448.491C158.757 452.396 162.46 456.503 166.29 460.759L188.826 441.551Z" fill="#462941"/>
<path d="M224.98 611C227.2 611 231.64 609.862 231.64 605.308C231.64 602.719 192.269 563.095 147.106 518.544C143.645 521.697 140.223 524.809 136.859 527.865L224.98 611Z" fill="#462941"/>
<path d="M265.891 592.502C269.696 592.818 277.022 592.122 275.881 586.81C275.042 582.906 228.094 529.71 186.139 482.866C182.375 486.317 178.586 489.789 174.791 493.263L265.891 592.502Z" fill="#462941"/>
<path d="M265.732 263.007L263.512 274.233C271.867 274.957 274.241 272.858 274.439 271.566L274.453 271.387L275.721 262.059C276.514 253.521 266.048 256.525 265.732 263.007Z" fill="#462941"/>
<path d="M111.601 388.228L107.003 388.544C103.792 388.831 100.097 389.178 96.0621 389.576C75.9987 391.555 47.5445 394.794 28.5112 398.222C23.9136 399.05 19.8656 399.889 16.6185 400.724C15.1872 401.092 18.9852 400.043 17.8865 400.408C4.56663 404.835 7.42089 420.007 17.8865 420.007C20.9227 419.408 18.2564 420.056 21.8513 419.364C22.6333 419.213 23.4264 419.059 24.2299 418.9C56.7693 412.482 107.118 404.581 114.139 403.248C115.507 402.988 116.505 402.53 117.201 401.929C120.574 399.02 117.31 388.228 111.601 388.228Z" fill="#462941"/>
<path d="M104.149 264.746C104.204 265.874 104.395 266.401 105.101 267.118C108.097 267.233 111.278 267.357 114.615 267.489C114.932 266.259 115.254 261.712 114.931 254.47C114.615 247.355 104.942 249.41 104.941 255.892L104.149 264.746Z" fill="#462941"/>
<path d="M266.366 338.266H253.363L251.936 346.013L171.7 357.239C168.37 360.717 163.708 368.717 171.7 372.891L183.831 371.215L195.961 369.539L250.668 361.982L244.008 404.196L191.996 415.739L195.961 369.539L183.831 371.215L178.831 411.311L177.884 418.9L161.234 424.118C156.794 426.648 159.172 435.356 161.752 439.77C162.01 440.402 162.312 440.999 162.661 441.551C164.534 444.508 166.29 444.988 173.127 444.988C176.684 444.988 182.141 443.006 188.826 441.551C197.161 439.736 207.273 437.542 217.368 435.356C226.742 433.326 236.101 431.303 244.008 429.595C247.704 428.796 251.4 426.328 254.315 425.699C261.926 422.379 264.559 413.493 255.425 407.042L266.366 338.266Z" fill="#462941"/>
<path d="M143.633 459.322L154.319 470.962L166.29 460.759C162.46 456.503 158.757 452.396 155.232 448.491C151.563 451.918 147.678 455.546 143.633 459.322Z" fill="#462941"/>
</svg>
