<svg width="310" height="582" viewBox="0 0 310 582" fill="none" xmlns="http://www.w3.org/2000/svg">
<path fill-rule="evenodd" clip-rule="evenodd" d="M215.048 89.907C221.828 80.5451 225.834 68.9777 225.834 56.4585C225.834 46.0487 223.064 36.2969 218.233 27.9241C223.857 38.0903 225.834 48.9166 225.834 56.4585C224.992 70.7692 221.564 81.6039 215.048 89.907ZM205.634 100.025C205.374 100.243 205.112 100.458 204.849 100.671C193.21 109.883 179.341 112.917 170.324 112.917C249.556 81.1294 213.024 8.0655 170.324 0C180.057 0.499103 188.19 2.6329 194.956 5.84902C187.534 2.10486 179.171 0 170.324 0C139.667 0 114.815 25.2773 114.815 56.4585C114.815 87.6397 139.667 112.917 170.324 112.917C183.737 112.917 196.038 108.079 205.634 100.025Z" fill="#653A58"/>
<path fill-rule="evenodd" clip-rule="evenodd" d="M170.324 0C213.024 8.0655 249.556 81.1294 170.324 112.917C179.341 112.917 193.21 109.883 204.849 100.671C205.112 100.458 205.374 100.243 205.634 100.025C209.165 97.0606 212.329 93.6611 215.048 89.907C221.564 81.6039 224.992 70.7692 225.834 56.4585C225.834 48.9166 223.857 38.0903 218.233 27.9241C212.769 18.4542 204.668 10.7482 194.956 5.84902C188.19 2.6329 180.057 0.499103 170.324 0Z" fill="#895872"/>
<path d="M166.529 40.3274C172.569 43.9063 180.187 53.2614 173.645 65.4727C187.404 55.5097 177.915 39.8529 166.529 40.3274Z" fill="#935B72"/>
<path d="M150.872 53.6115C150.113 46.4 157.356 41.9086 161.31 40.3271C156.882 40.4853 148.111 41.5979 146.602 52.6626C145.179 63.1003 149.243 67.8447 156.091 70.6914C156.909 71.0314 163.207 72.5891 167.118 70.6914C151.936 69.2681 151.821 62.6259 150.872 53.6115Z" fill="#4A263F"/>
<ellipse cx="163.682" cy="55.5096" rx="13.7588" ry="15.6566" fill="#653A58"/>
<path fill-rule="evenodd" clip-rule="evenodd" d="M136.915 95.4354C142.967 87.0787 146.543 76.7533 146.543 65.5784C146.543 56.2864 144.07 47.5817 139.758 40.1078C144.778 49.1825 146.543 58.8463 146.543 65.5784C145.791 78.3525 142.731 88.0238 136.915 95.4354ZM128.511 104.467C128.28 104.661 128.046 104.854 127.811 105.044C117.422 113.267 105.042 115.975 96.9934 115.975C167.718 87.6003 135.108 22.3816 96.9934 15.1821C105.681 15.6276 112.94 17.5323 118.981 20.4031C112.355 17.061 104.89 15.1821 96.9934 15.1821C69.6281 15.1821 47.4441 37.7453 47.4441 65.5784C47.4441 93.4115 69.6281 115.975 96.9934 115.975C108.966 115.975 119.946 111.656 128.511 104.467Z" fill="#653A58"/>
<path fill-rule="evenodd" clip-rule="evenodd" d="M96.9934 15.1821C135.108 22.3816 167.718 87.6003 96.9934 115.975C105.042 115.975 117.422 113.267 127.811 105.044C128.046 104.854 128.28 104.661 128.511 104.467C131.663 101.821 134.488 98.7864 136.915 95.4354C142.731 88.0238 145.791 78.3525 146.543 65.5784C146.543 58.8463 144.778 49.1825 139.758 40.1078C134.88 31.6548 127.65 24.7763 118.981 20.4031C112.94 17.5323 105.681 15.6276 96.9934 15.1821Z" fill="#895872"/>
<path d="M93.6053 51.1793C98.9969 54.3739 105.797 62.7245 99.9578 73.6246C112.239 64.7314 103.769 50.7558 93.6053 51.1793Z" fill="#935B72"/>
<path d="M79.6297 63.0371C78.9521 56.6 85.4175 52.5909 88.9467 51.1792C84.994 51.3204 77.1649 52.3135 75.8183 62.1902C74.548 71.5071 78.1758 75.7421 84.2882 78.2831C85.0183 78.5866 90.6406 79.9771 94.131 78.2831C80.579 77.0126 80.4767 71.0836 79.6297 63.0371Z" fill="#4A263F"/>
<ellipse cx="91.0644" cy="64.7313" rx="12.2814" ry="13.9754" fill="#653A58"/>
<path d="M190.251 205.433V109.121H62.6264C54.5608 109.121 53.0426 113.582 52.6631 131.421C52.4498 141.445 52.4263 155.684 52.4747 168.902C52.5124 179.205 52.5938 188.888 52.6631 195.469C53.612 202.586 54.5608 206.381 65.9474 206.381C68.5899 206.381 74.7161 206.33 83.0272 206.252C106.633 206.029 147.864 205.585 176.967 205.464C181.77 205.444 186.242 205.433 190.251 205.433Z" fill="#E44783"/>
<path d="M190.251 109.121V205.433C207.805 206.381 214.447 205.907 214.447 196.418C214.447 186.198 214.606 138.22 213.499 114.34C213.499 110.07 208.28 109.122 190.251 109.121Z" fill="#F96395"/>
<path d="M28.4666 168.902C24.671 153.719 28.4666 142.333 30.8388 138.537C30.2062 136.64 26.7585 133.508 18.0288 136.165C13.4426 138.696 6.17517 146.637 9.01444 159.413C11.861 172.222 22.7732 173.171 28.4666 168.902Z" fill="#5D334F"/>
<path d="M86.3483 222.988L85.8775 220.616L8.0655 253.827C4.74442 255.408 -1.23354 260.089 1.42333 266.162C4.74442 273.753 11.3865 273.753 19.9265 269.958C26.7586 266.921 76.2269 237.379 100.107 222.988H86.3483Z" fill="#643955"/>
<path d="M176.967 205.464C147.864 205.585 106.633 206.029 83.0272 206.252L85.8775 220.616L86.3483 222.988H100.107H118.136H157.989H173.171L176.967 205.464Z" fill="#4D2542"/>
<path d="M118.136 222.988V238.17C118.136 240.068 119.274 243.958 123.829 244.338C128.384 244.717 144.705 244.496 152.296 244.338C153.877 244.338 157.23 243.104 157.989 238.17C158.748 233.236 158.305 225.993 157.989 222.988H118.136Z" fill="#5F3452"/>
<path d="M110.07 265.213L0 541.338C0.948882 544.817 4.45975 550.068 10.9121 543.236C17.3645 536.404 91.0927 354.837 127.15 264.908L110.07 265.213Z" fill="#552C49"/>
<path d="M127.15 264.908L123.829 578.819C124.304 582.139 132.749 582.994 134.267 578.819C135.785 574.644 142.174 367.591 145.179 264.586L127.15 264.908Z" fill="#552C49"/>
<path d="M163.208 264.264L145.179 264.586L200.689 543.236C202.112 548.454 214.447 547.79 214.447 543.236C214.447 538.681 180.288 355.357 163.208 264.264Z" fill="#552C49"/>
<path d="M52.5492 138.537H30.8388C28.4666 142.333 24.671 153.719 28.4666 168.902H52.4747C52.4368 158.571 52.4429 147.616 52.5492 138.537Z" fill="#5D334F"/>
<path d="M152.296 244.338C144.705 244.496 128.384 244.717 123.829 244.338C120.508 244.654 113.391 246.9 111.494 253.352C109.596 259.805 109.754 263.948 110.07 265.213L127.15 264.908L145.179 264.586L163.208 264.264C163.682 259.045 162.164 247.754 152.296 244.338Z" fill="#5B304D"/>
<rect x="64.524" y="124.303" width="113.866" height="67.3706" rx="5" fill="#BB3168"/>
<rect x="93.9393" y="145.179" width="48.393" height="25.6198" rx="5" fill="#9A2656"/>
<path d="M30.8387 139.011C28.9409 143.756 25.8096 156.281 28.4665 168.427C24.1964 160.361 22.773 147.551 30.8387 139.011Z" fill="#4C2441"/>
<path d="M152.296 244.337H123.829C121.931 244.337 117.496 246.235 117.021 246.709H156.566C155.806 245.95 153.719 244.811 152.296 244.337Z" fill="#4F2641"/>
<path fill-rule="evenodd" clip-rule="evenodd" d="M301.511 109.201C292.496 109.043 272.38 109.012 264.03 110.15C262.735 110.327 261.637 110.756 260.709 111.377C255.648 114.764 256.439 123.434 256.439 128.653V183.688C256.439 192.292 260.599 195.045 263.261 195.484C263.516 195.506 263.772 195.528 264.03 195.55C275.575 195.866 299.613 196.309 303.409 195.55C307.204 194.79 308.786 188.275 309.102 185.112V121.062C309.102 113.092 304.041 109.834 301.511 109.201ZM270.672 112.522C263.84 112.522 262.448 116.318 262.607 118.216C262.29 138.3 261.658 179.798 261.658 185.112C261.658 190.426 266.402 192.387 268.774 192.703C275.733 192.861 291.263 193.083 297.715 192.703C304.168 192.323 306.097 188.117 306.255 186.061V120.113C306.255 114.8 301.194 112.839 298.664 112.522H270.672Z" fill="#AE6D80"/>
<path d="M256.439 183.688V128.653C256.439 123.434 255.648 114.764 260.709 111.377C254.661 113.156 244.439 116.699 235.361 121.062C230.707 133.322 221.307 161.977 232.476 185.981C238.532 189.285 250.543 194.346 263.261 195.484C260.599 195.045 256.439 192.292 256.439 183.688Z" fill="#68425F"/>
<path d="M220.381 180.029C222.464 180.13 224.885 181.592 226.308 182.659C217.294 153.244 225.834 129.522 230.708 123.434C226.026 125.977 221.973 128.718 219.432 131.5C214.846 141.396 208.615 164.955 220.381 180.029Z" fill="#643D5A"/>
<path d="M215.162 132.923C212.474 131.5 206.148 130.551 202.352 136.244C199.643 140.309 194.816 165.742 202.352 177.046C205.199 181.316 214.688 182.74 216.111 180.842C202.447 166.419 209.785 142.887 215.162 132.923Z" fill="#643D5A"/>
<path d="M230.708 123.434C225.834 129.522 217.294 153.244 226.308 182.659C228.206 184.083 227.753 183.403 232.476 185.981C221.307 161.977 230.707 133.322 235.361 121.062C233.765 121.829 232.204 122.622 230.708 123.434Z" fill="#4A213C"/>
<path d="M219.432 131.5L215.162 132.923C209.785 142.887 202.447 166.419 216.111 180.842C216.668 180.099 218.384 179.932 220.381 180.029C208.615 164.955 214.846 141.396 219.432 131.5Z" fill="#4A213C"/>
<path d="M262.607 118.216C262.448 116.318 263.84 112.522 270.672 112.522H298.664C301.194 112.839 306.255 114.8 306.255 120.113V186.061C306.097 188.117 304.168 192.323 297.715 192.703C291.263 193.083 275.733 192.861 268.774 192.703C266.402 192.387 261.658 190.426 261.658 185.112C261.658 179.798 262.29 138.3 262.607 118.216Z" fill="#4A213C"/>
</svg>
