<svg width="382" height="582" viewBox="0 0 382 582" fill="none" xmlns="http://www.w3.org/2000/svg">
<path fill-rule="evenodd" clip-rule="evenodd" d="M215.048 89.907C221.828 80.5451 225.834 68.9777 225.834 56.4585C225.834 46.0487 223.064 36.2969 218.233 27.9241C223.857 38.0903 225.834 48.9166 225.834 56.4585C224.992 70.7692 221.564 81.6039 215.048 89.907ZM205.634 100.025C205.374 100.243 205.112 100.458 204.849 100.671C193.21 109.883 179.341 112.917 170.324 112.917C249.556 81.1294 213.024 8.0655 170.324 0C180.057 0.499103 188.19 2.6329 194.956 5.84902C187.534 2.10486 179.171 0 170.324 0C139.667 0 114.815 25.2773 114.815 56.4585C114.815 87.6397 139.667 112.917 170.324 112.917C183.737 112.917 196.038 108.079 205.634 100.025Z" fill="#653A58"/>
<path fill-rule="evenodd" clip-rule="evenodd" d="M170.324 0C213.024 8.0655 249.556 81.1294 170.324 112.917C179.341 112.917 193.21 109.883 204.849 100.671C205.112 100.458 205.374 100.243 205.634 100.025C209.165 97.0606 212.329 93.6611 215.048 89.907C221.564 81.6039 224.992 70.7692 225.834 56.4585C225.834 48.9166 223.857 38.0903 218.233 27.9241C212.769 18.4542 204.668 10.7482 194.956 5.84902C188.19 2.6329 180.057 0.499103 170.324 0Z" fill="#895872"/>
<path d="M166.529 40.3272C172.569 43.9061 180.187 53.2612 173.645 65.4725C187.404 55.5094 177.915 39.8527 166.529 40.3272Z" fill="#935B72"/>
<path d="M150.872 53.6117C150.113 46.4002 157.356 41.9089 161.31 40.3274C156.882 40.4855 148.111 41.5982 146.602 52.6629C145.179 63.1006 149.243 67.845 156.091 70.6916C156.909 71.0316 163.207 72.5894 167.118 70.6916C151.936 69.2683 151.821 62.6261 150.872 53.6117Z" fill="#4A263F"/>
<ellipse cx="163.682" cy="55.5093" rx="13.7588" ry="15.6566" fill="#653A58"/>
<path fill-rule="evenodd" clip-rule="evenodd" d="M136.915 95.4354C142.967 87.0787 146.543 76.7533 146.543 65.5784C146.543 56.2864 144.07 47.5817 139.758 40.1078C144.778 49.1825 146.543 58.8463 146.543 65.5784C145.791 78.3525 142.731 88.0238 136.915 95.4354ZM128.511 104.467C128.28 104.661 128.046 104.854 127.811 105.044C117.422 113.267 105.042 115.975 96.9934 115.975C167.718 87.6003 135.108 22.3816 96.9934 15.1821C105.681 15.6276 112.94 17.5323 118.981 20.4031C112.355 17.061 104.89 15.1821 96.9934 15.1821C69.6281 15.1821 47.4441 37.7453 47.4441 65.5784C47.4441 93.4115 69.6281 115.975 96.9934 115.975C108.966 115.975 119.946 111.656 128.511 104.467Z" fill="#653A58"/>
<path fill-rule="evenodd" clip-rule="evenodd" d="M96.9934 15.1821C135.108 22.3816 167.718 87.6003 96.9934 115.975C105.042 115.975 117.422 113.267 127.811 105.044C128.046 104.854 128.28 104.661 128.511 104.467C131.663 101.821 134.488 98.7864 136.915 95.4354C142.731 88.0238 145.791 78.3525 146.543 65.5784C146.543 58.8463 144.778 49.1825 139.758 40.1078C134.88 31.6548 127.65 24.7763 118.981 20.4031C112.94 17.5323 105.681 15.6276 96.9934 15.1821Z" fill="#895872"/>
<path d="M93.6053 51.1793C98.9969 54.3739 105.797 62.7245 99.9578 73.6246C112.239 64.7314 103.769 50.7558 93.6053 51.1793Z" fill="#935B72"/>
<path d="M79.6297 63.0371C78.9521 56.6 85.4175 52.5909 88.9467 51.1792C84.994 51.3204 77.1649 52.3135 75.8183 62.1902C74.548 71.5071 78.1758 75.7421 84.2882 78.2831C85.0183 78.5866 90.6406 79.9771 94.131 78.2831C80.579 77.0126 80.4767 71.0836 79.6297 63.0371Z" fill="#4A263F"/>
<ellipse cx="91.0644" cy="64.7313" rx="12.2814" ry="13.9754" fill="#653A58"/>
<path d="M190.251 205.433V109.122H62.6264C54.5608 109.122 53.0426 113.582 52.6631 131.421C52.4498 141.446 52.4263 155.685 52.4747 168.902C52.5124 179.206 52.5938 188.888 52.6631 195.47C53.612 202.586 54.5608 206.382 65.9474 206.382C68.5899 206.382 74.7161 206.331 83.0272 206.252C106.633 206.029 147.864 205.586 176.967 205.464C181.77 205.444 186.242 205.433 190.251 205.433Z" fill="#E44783"/>
<path d="M190.251 109.122V205.433C207.805 206.382 214.447 205.908 214.447 196.419C214.447 186.199 214.606 138.221 213.499 114.34C213.499 110.071 208.28 109.122 190.251 109.122Z" fill="#F96395"/>
<path d="M28.4666 168.902C24.671 153.72 28.4666 142.333 30.8388 138.538C30.2062 136.64 26.7585 133.509 18.0288 136.166C13.4426 138.696 6.17517 146.637 9.01444 159.413C11.861 172.222 22.7732 173.171 28.4666 168.902Z" fill="#5D334F"/>
<path d="M86.3483 222.988L85.8775 220.616L8.0655 253.827C4.74442 255.409 -1.23354 260.09 1.42333 266.163C4.74442 273.754 11.3865 273.754 19.9265 269.958C26.7586 266.922 76.2269 237.38 100.107 222.988H86.3483Z" fill="#643955"/>
<path d="M176.967 205.464C147.864 205.586 106.633 206.029 83.0272 206.252L85.8775 220.616L86.3483 222.988H100.107H118.136H157.989H173.171L176.967 205.464Z" fill="#4D2542"/>
<path d="M118.136 222.988V238.17C118.136 240.068 119.274 243.959 123.829 244.338C128.384 244.718 144.705 244.496 152.296 244.338C153.877 244.338 157.23 243.105 157.989 238.17C158.748 233.236 158.305 225.993 157.989 222.988H118.136Z" fill="#5F3452"/>
<path d="M110.07 265.214L0 541.338C0.948882 544.818 4.45975 550.068 10.9121 543.236C17.3645 536.404 91.0927 354.838 127.15 264.909L110.07 265.214Z" fill="#552C49"/>
<path d="M127.15 264.909L123.829 578.819C124.304 582.139 132.749 582.994 134.267 578.819C135.785 574.644 142.174 367.591 145.179 264.587L127.15 264.909Z" fill="#552C49"/>
<path d="M163.208 264.265L145.179 264.587L200.689 543.236C202.112 548.454 214.447 547.791 214.447 543.236C214.447 538.681 180.288 355.357 163.208 264.265Z" fill="#552C49"/>
<path d="M52.5492 138.538H30.8388C28.4666 142.333 24.671 153.72 28.4666 168.902H52.4747C52.4368 158.571 52.4429 147.617 52.5492 138.538Z" fill="#5D334F"/>
<path d="M152.296 244.338C144.705 244.496 128.384 244.718 123.829 244.338C120.508 244.655 113.391 246.9 111.494 253.353C109.596 259.805 109.754 263.948 110.07 265.214L127.15 264.909L145.179 264.587L163.208 264.265C163.682 259.046 162.164 247.754 152.296 244.338Z" fill="#5B304D"/>
<rect x="64.524" y="124.304" width="113.866" height="67.3706" rx="5" fill="#BB3168"/>
<rect x="93.9393" y="145.179" width="48.393" height="25.6198" rx="5" fill="#9A2656"/>
<path d="M30.8387 139.011C28.9409 143.756 25.8096 156.281 28.4665 168.427C24.1964 160.361 22.773 147.551 30.8387 139.011Z" fill="#4C2441"/>
<path d="M152.296 244.337H123.829C121.931 244.337 117.496 246.235 117.021 246.709H156.566C155.806 245.95 153.719 244.812 152.296 244.337Z" fill="#4F2641"/>
<path fill-rule="evenodd" clip-rule="evenodd" d="M301.511 109.202C292.496 109.044 272.38 109.012 264.03 110.151C262.735 110.327 261.637 110.757 260.709 111.378C255.648 114.764 256.439 123.435 256.439 128.654V183.689C256.439 192.292 260.599 195.045 263.261 195.484C263.516 195.507 263.772 195.529 264.03 195.55C275.575 195.866 299.613 196.309 303.409 195.55C307.204 194.791 308.786 188.275 309.102 185.112V121.063C309.102 113.092 304.041 109.834 301.511 109.202ZM270.672 112.523C263.84 112.523 262.448 116.318 262.607 118.216C262.29 138.301 261.658 179.799 261.658 185.112C261.658 190.426 266.402 192.387 268.774 192.703C275.733 192.862 291.263 193.083 297.715 192.703C304.168 192.324 306.097 188.117 306.255 186.061V120.114C306.255 114.8 301.194 112.839 298.664 112.523H270.672Z" fill="#AE6D80"/>
<path d="M256.439 183.689V128.654C256.439 123.435 255.648 114.764 260.709 111.378C254.661 113.157 244.439 116.699 235.361 121.063C230.707 133.322 221.307 161.978 232.476 185.981C238.532 189.286 250.543 194.347 263.261 195.484C260.599 195.045 256.439 192.292 256.439 183.689Z" fill="#68425F"/>
<path d="M220.381 180.029C222.464 180.13 224.885 181.592 226.308 182.66C217.294 153.245 225.834 129.523 230.708 123.435C226.026 125.978 221.973 128.718 219.432 131.5C214.846 141.396 208.615 164.955 220.381 180.029Z" fill="#643D5A"/>
<path d="M215.162 132.924C212.474 131.5 206.148 130.552 202.352 136.245C199.643 140.309 194.816 165.743 202.352 177.047C205.199 181.317 214.688 182.74 216.111 180.842C202.447 166.419 209.785 142.887 215.162 132.924Z" fill="#643D5A"/>
<path d="M230.708 123.435C225.834 129.523 217.294 153.245 226.308 182.66C228.206 184.083 227.753 183.403 232.476 185.981C221.307 161.978 230.707 133.322 235.361 121.063C233.765 121.83 232.204 122.622 230.708 123.435Z" fill="#4A213C"/>
<path d="M219.432 131.5L215.162 132.924C209.785 142.887 202.447 166.419 216.111 180.842C216.668 180.099 218.384 179.932 220.381 180.029C208.615 164.955 214.846 141.396 219.432 131.5Z" fill="#4A213C"/>
<path d="M262.607 118.216C262.448 116.318 263.84 112.523 270.672 112.523H298.664C301.194 112.839 306.255 114.8 306.255 120.114V186.061C306.097 188.117 304.168 192.324 297.715 192.703C291.263 193.083 275.733 192.862 268.774 192.703C266.402 192.387 261.658 190.426 261.658 185.112C261.658 179.799 262.29 138.301 262.607 118.216Z" fill="#4A213C"/>
<path d="M147.567 378.042L163.379 502.582C163.808 505.772 165.415 508.061 170.617 508.104C175.819 508.148 309.786 487.221 373.386 477.125C379.827 476.723 377.815 468.654 374.874 446.779C371.934 424.903 363.297 371.006 359.969 346.244L344.505 348.559L324.038 351.623L299.932 355.232L277.191 358.636L252.631 362.313L229.435 365.786L208.058 368.986L187.591 372.05L147.567 378.042Z" fill="#5E3451"/>
<path d="M140.995 370.574C141.975 377.866 146.047 378.246 147.567 378.042L187.591 372.05L204.987 339.237L186.758 341.688C183.904 339.621 183.365 337.864 184.288 333.668C189.738 331.495 195.824 329.071 202.344 326.476L171.737 305.88C160.524 310.473 151.577 314.151 147.561 315.87C139.664 319.251 134.134 319.531 135.053 326.367L140.995 370.574Z" fill="#5E3451"/>
<path d="M190.207 298.317L219.961 319.467C225.416 317.297 231.025 315.068 236.698 312.815L208.676 290.737C202.503 293.277 196.254 295.84 190.207 298.317Z" fill="#5E3451"/>
<path d="M247.339 274.62C241.68 277.041 234.729 279.956 227.137 283.11L256.079 305.122C264.637 301.728 273.108 298.372 281.188 295.176L250.964 273.205L247.339 274.62Z" fill="#5E3451"/>
<path d="M270.703 265.498L302.337 286.826C311.884 283.065 320.212 279.798 326.578 277.322L295.831 255.687L270.703 265.498Z" fill="#5E3451"/>
<path d="M338.137 249.412C336.033 244.115 332.216 242.177 328.894 242.778C325.572 243.38 314.396 248.439 314.396 248.439L342.773 270.092C346.257 265.111 340.532 255.44 338.137 249.412Z" fill="#5E3451"/>
<path d="M222.305 336.909L208.058 368.986L229.435 365.786L247.371 333.54L222.305 336.909Z" fill="#5E3451"/>
<path d="M268.335 330.722L252.631 362.313L277.191 358.636L292.945 327.414L268.335 330.722Z" fill="#5E3451"/>
<path d="M314.365 324.535L299.932 355.232L324.038 351.623L343.077 320.676L314.365 324.535Z" fill="#5E3451"/>
<path d="M359.969 346.244C362.485 340.802 362.6 334.755 360.919 325.701C360.685 324.437 360.321 323.416 359.858 322.596L344.505 348.559L359.969 346.244Z" fill="#5E3451"/>
<path d="M204.987 339.237L187.591 372.05L208.058 368.986L222.305 336.909L204.987 339.237Z" fill="#F6D5D7"/>
<path d="M247.371 333.54L229.435 365.786L252.631 362.313L268.335 330.722L247.371 333.54Z" fill="#EFCBCE"/>
<path d="M292.945 327.414L277.191 358.636L299.932 355.232L314.365 324.535L292.945 327.414Z" fill="#F6D5D7"/>
<path d="M349.457 319.818L343.077 320.676L324.038 351.623L344.505 348.559L359.858 322.596C357.664 318.715 353.219 319.312 349.457 319.818Z" fill="#F6D5D7"/>
<path d="M208.676 290.737L236.698 312.815C243.12 310.264 249.624 307.682 256.079 305.122L227.137 283.11C221.265 285.549 215.011 288.131 208.676 290.737Z" fill="#F6D5D7"/>
<path d="M171.737 305.88L202.344 326.476C207.939 324.249 213.853 321.895 219.961 319.467L190.207 298.317C183.7 300.983 177.427 303.549 171.737 305.88Z" fill="#F6D5D7"/>
<path d="M250.964 273.205L281.188 295.176C288.652 292.224 295.782 289.408 302.337 286.826L270.703 265.498L250.964 273.205Z" fill="#F6D5D7"/>
<path d="M326.578 277.322C333.414 274.664 338.065 273.105 339.379 272.455C341.989 271.165 342.058 271.114 342.773 270.092L314.396 248.439L295.831 255.687L326.578 277.322Z" fill="#F6D5D7"/>
<path d="M141.758 317.571C143.025 337.352 147.612 364.574 149.45 378.246C145.865 379.192 141.519 377.92 140.783 372.451L134.412 325.054C133.824 320.679 139.541 318.333 141.758 317.571Z" fill="#522441"/>
<path d="M157.599 383.646L360.37 352.678L359.573 346.754L146.715 378.613L153.944 432.391L163.439 503.031C164.174 508.499 170.961 508.361 174.262 507.607L157.599 383.646Z" fill="#522441"/>
<circle cx="152.316" cy="330.535" r="6.43775" transform="rotate(-7.65565 152.316 330.535)" fill="#F6D5D7"/>
<circle cx="156.359" cy="360.614" r="6.43775" transform="rotate(-7.65565 156.359 360.614)" fill="#F6D5D7"/>
<rect x="175.499" y="404.155" width="177.498" height="3.67872" rx="1.83936" transform="rotate(-8.65232 175.499 404.155)" fill="#D9D9D9"/>
<rect x="228.345" y="444.291" width="45.7738" height="3.67872" rx="1.83936" transform="rotate(-98.9306 228.345 444.291)" fill="#D9D9D9"/>
<rect x="308.356" y="432.116" width="45.7738" height="3.67872" rx="1.83936" transform="rotate(-98.9306 308.356 432.116)" fill="#D9D9D9"/>
<rect x="183.049" y="447.658" width="177.498" height="3.67872" rx="1.83936" transform="rotate(-8.65232 183.049 447.658)" fill="#D9D9D9"/>
<rect x="186.014" y="473.255" width="177.498" height="3.67872" rx="1.83936" transform="rotate(-8.65232 186.014 473.255)" fill="#D9D9D9"/>
</svg>
