<svg width="255" height="270" viewBox="0 0 255 270" fill="none" xmlns="http://www.w3.org/2000/svg">
<path d="M20.5666 138.042L36.3789 262.582C36.8077 265.772 38.4147 268.061 43.617 268.104C48.8193 268.148 182.786 247.22 246.386 237.125C252.827 236.723 250.815 228.654 247.874 206.779C244.934 184.903 236.297 131.006 232.969 106.244L217.505 108.559L197.038 111.623L172.932 115.232L150.191 118.636L125.631 122.313L102.435 125.786L81.0581 128.986L60.5911 132.05L20.5666 138.042Z" fill="#5E3451"/>
<path d="M13.995 130.574C14.9752 137.866 19.0475 138.246 20.5666 138.042L60.5911 132.05L77.9873 99.2373L59.7576 101.688C56.9041 99.6206 56.365 97.8638 57.2877 93.6681C62.7384 91.4954 68.824 89.0712 75.344 86.4757L44.737 65.8798C33.5244 70.473 24.5769 74.1506 20.5612 75.8701C12.6642 79.2514 7.13403 79.5307 8.05288 86.3669L13.995 130.574Z" fill="#5E3451"/>
<path d="M63.2074 58.3165L92.9609 79.4666C98.4158 77.2974 104.025 75.0681 109.698 72.8149L81.6755 50.7371C75.503 53.2767 69.2538 55.8396 63.2074 58.3165Z" fill="#5E3451"/>
<path d="M120.339 34.6198C114.68 37.0408 107.729 39.9558 100.137 43.1095L129.079 65.1222C137.637 61.7281 146.108 58.3719 154.188 55.176L123.964 33.2045L120.339 34.6198Z" fill="#5E3451"/>
<path d="M143.703 25.4976L175.337 46.8259C184.884 43.0647 193.212 39.7977 199.578 37.3224L168.831 15.687L143.703 25.4976Z" fill="#5E3451"/>
<path d="M211.137 9.41149C209.033 4.11448 205.216 2.17729 201.894 2.77844C198.572 3.37959 187.396 8.43901 187.396 8.43901L215.773 30.0922C219.257 25.1113 213.532 15.44 211.137 9.41149Z" fill="#5E3451"/>
<path d="M95.3055 96.9094L81.0581 128.986L102.435 125.786L120.371 93.5402L95.3055 96.9094Z" fill="#5E3451"/>
<path d="M141.335 90.7222L125.631 122.313L150.191 118.636L165.945 87.4142L141.335 90.7222Z" fill="#5E3451"/>
<path d="M187.365 84.535L172.932 115.232L197.038 111.623L216.077 80.6757L187.365 84.535Z" fill="#5E3451"/>
<path d="M232.969 106.244C235.485 100.802 235.6 94.7545 233.919 85.701C233.685 84.437 233.321 83.4163 232.858 82.5958L217.505 108.559L232.969 106.244Z" fill="#5E3451"/>
<path d="M77.9873 99.2373L60.5911 132.05L81.0581 128.986L95.3055 96.9094L77.9873 99.2373Z" fill="#F6D5D7"/>
<path d="M120.371 93.5402L102.435 125.786L125.631 122.313L141.335 90.7222L120.371 93.5402Z" fill="#EFCBCE"/>
<path d="M165.945 87.4142L150.191 118.636L172.932 115.232L187.365 84.535L165.945 87.4142Z" fill="#F6D5D7"/>
<path d="M222.457 79.8181L216.077 80.6757L197.038 111.623L217.505 108.559L232.858 82.5958C230.664 78.7149 226.219 79.3124 222.457 79.8181Z" fill="#F6D5D7"/>
<path d="M81.6755 50.7371L109.698 72.8149C116.12 70.264 122.624 67.6823 129.079 65.1222L100.137 43.1095C94.2655 45.5486 88.0109 48.1306 81.6755 50.7371Z" fill="#F6D5D7"/>
<path d="M44.737 65.8798L75.344 86.4757C80.9387 84.2485 86.8532 81.8952 92.9609 79.4666L63.2074 58.3165C56.6996 60.9825 50.4267 63.549 44.737 65.8798Z" fill="#F6D5D7"/>
<path d="M123.964 33.2045L154.188 55.176C161.652 52.2239 168.782 49.4084 175.337 46.8259L143.703 25.4976L123.964 33.2045Z" fill="#F6D5D7"/>
<path d="M199.578 37.3224C206.414 34.6643 211.065 33.1052 212.379 32.4554C214.989 31.1645 215.058 31.1139 215.773 30.0922L187.396 8.43901L168.831 15.687L199.578 37.3224Z" fill="#F6D5D7"/>
<path d="M14.7581 77.5713C16.0251 97.352 20.6121 124.574 22.4499 138.246C18.8652 139.192 14.5185 137.92 13.7834 132.451L7.41244 85.0544C6.82435 80.6793 12.5407 78.3334 14.7581 77.5713Z" fill="#522441"/>
<path d="M30.5994 143.646L233.37 112.678L232.573 106.754L19.7154 138.613L26.944 192.391L36.4393 263.03C37.1744 268.499 43.9607 268.36 47.2619 267.607L30.5994 143.646Z" fill="#522441"/>
<circle cx="25.3162" cy="90.5351" r="6.43775" transform="rotate(-7.65565 25.3162 90.5351)" fill="#F6D5D7"/>
<circle cx="29.3593" cy="120.614" r="6.43775" transform="rotate(-7.65565 29.3593 120.614)" fill="#F6D5D7"/>
<rect x="48.4991" y="164.154" width="177.498" height="3.67872" rx="1.83936" transform="rotate(-8.65232 48.4991 164.154)" fill="#D9D9D9"/>
<rect x="101.345" y="204.291" width="45.7738" height="3.67872" rx="1.83936" transform="rotate(-98.9306 101.345 204.291)" fill="#D9D9D9"/>
<rect x="181.356" y="192.116" width="45.7738" height="3.67872" rx="1.83936" transform="rotate(-98.9306 181.356 192.116)" fill="#D9D9D9"/>
<rect x="56.0494" y="207.658" width="177.498" height="3.67872" rx="1.83936" transform="rotate(-8.65232 56.0494 207.658)" fill="#D9D9D9"/>
<rect x="59.014" y="233.255" width="177.498" height="3.67872" rx="1.83936" transform="rotate(-8.65232 59.014 233.255)" fill="#D9D9D9"/>
</svg>
