<svg width="1323" height="214" viewBox="0 0 1323 214" fill="none" xmlns="http://www.w3.org/2000/svg">
<rect width="1323" height="214" fill="#D1487F"/>
<path d="M1155.89 106.481L1199.17 90.617L1198.46 88.6749L1182.19 44.2858C1181.67 42.8639 1181.13 41.7094 1180.59 40.7789C1180.39 40.5229 1180.18 40.2111 1180.04 39.9024C1179.17 38.6254 1178.31 37.9057 1177.52 37.5558C1176.24 36.9882 1175.15 37.3928 1174.52 37.969C1163.91 42.49 1141.73 51.8776 1137.96 53.2606C1135.52 54.1543 1135.3 56.2492 1135.78 58.1481C1136.05 59.1881 1136.53 60.1692 1136.97 60.8619C1141.47 72.8501 1150.71 97.6791 1151.71 101.09C1151.86 101.583 1152.03 102.039 1152.21 102.459C1153.32 104.939 1155.06 106.16 1155.89 106.481Z" fill="#8C5666"/>
<path d="M1137.96 53.2606C1141.73 51.8776 1163.91 42.49 1174.52 37.969C1175.15 37.3928 1176.24 36.9882 1177.52 37.5558C1176.66 36.9201 1176.49 36.8124 1175.36 35.9802C1169.85 31.9282 1161.02 25.4914 1158.3 23.7726C1155.03 21.7008 1153.3 22.1445 1152.85 22.6254C1143.52 26.3604 1123.9 34.3076 1120.06 36.2158C1116.23 38.1241 1118.39 40.8147 1119.95 41.9215L1137.96 53.2606Z" fill="#733553"/>
<path d="M1151.71 101.09C1150.71 97.6791 1141.47 72.8501 1136.97 60.8619C1136.53 60.1692 1136.05 59.1881 1135.78 58.1481L1108.77 62.0706C1107.41 62.3602 1105.17 64.0842 1107.1 68.6638C1109.03 73.2433 1119.44 102.637 1124.41 116.761C1124.59 117.535 1126.14 118.393 1130.92 115.634C1135.7 112.875 1147.11 105.701 1152.21 102.459C1152.03 102.039 1151.86 101.583 1151.71 101.09Z" fill="#733553"/>
<path d="M1199.17 90.617L1155.89 106.481C1155.15 109.9 1153.04 118.288 1150.53 124.495C1148.03 130.701 1152.41 131.045 1154.92 130.441C1162.72 127.686 1179.75 121.592 1185.44 119.255C1191.12 116.918 1193.92 112.055 1194.6 109.916L1196.64 101.3L1197.07 99.484L1199.17 90.617Z" fill="#733553"/>
<path d="M1182.02 38.6818C1185.03 39.3405 1191.85 42.317 1194.88 43.7229L1206.02 72.3725C1204.09 77.6957 1199.87 88.4088 1198.46 88.6749L1199.17 90.617L1197.07 99.484C1201.49 97.7969 1202.98 96.7169 1203.17 96.3878C1210.63 91.6206 1215.87 86.9689 1219.46 82.4435C1221.05 80.4511 1222.31 78.4831 1223.3 76.5405C1231.16 61.1577 1226.17 53.5461 1223.12 46.9068C1218.07 35.9478 1204.2 33.1423 1198.1 32.7886C1186.24 32.1007 1178.52 35.1351 1175.36 35.9802C1176.49 36.8124 1176.66 36.9201 1177.52 37.5558C1178.31 37.9057 1179.17 38.6254 1180.04 39.9024C1179.66 39.0369 1179.8 38.1963 1182.02 38.6818Z" fill="#733553"/>
<path d="M1180.59 40.7789C1181.13 41.7094 1181.67 42.8639 1182.19 44.2858L1198.46 88.6749C1199.87 88.4088 1204.09 77.6957 1206.02 72.3725L1194.88 43.7229C1191.85 42.317 1185.03 39.3405 1182.02 38.6818C1179.8 38.1963 1179.66 39.0369 1180.04 39.9024C1180.23 40.1696 1180.41 40.4612 1180.59 40.7789Z" fill="#6A304C"/>
<ellipse cx="1166.16" cy="72.7098" rx="18.9109" ry="22.7522" transform="rotate(-20.1307 1166.16 72.7098)" fill="#FDCFA6"/>
<ellipse cx="1166.27" cy="72.9873" rx="13.0013" ry="17.729" transform="rotate(-20.1307 1166.27 72.9873)" fill="#FDEECE"/>
<g filter="url(#filter0_f_360_379)">
<path d="M1090.05 187.464C1122.13 150.718 1149.84 118.644 1183.74 86.7307L1167.89 50.9803C1122.75 55.118 1068.57 64.1487 1017.19 69.7539L1090.05 187.464Z" fill="url(#paint0_linear_360_379)" fill-opacity="0.42"/>
</g>
<path d="M1202.16 0L1211.19 1.24561V55.7409H1202.47L1202.16 0Z" fill="#733553"/>
<defs>
<filter id="filter0_f_360_379" x="1009.69" y="43.4805" width="181.552" height="151.483" filterUnits="userSpaceOnUse" color-interpolation-filters="sRGB">
<feFlood flood-opacity="0" result="BackgroundImageFix"/>
<feBlend mode="normal" in="SourceGraphic" in2="BackgroundImageFix" result="shape"/>
<feGaussianBlur stdDeviation="3.75" result="effect1_foregroundBlur_360_379"/>
</filter>
<linearGradient id="paint0_linear_360_379" x1="1172.64" y1="53.3574" x2="1079" y2="156.794" gradientUnits="userSpaceOnUse">
<stop stop-color="#FDEECE" stop-opacity="0.74"/>
<stop offset="1" stop-color="#FDEECE" stop-opacity="0"/>
</linearGradient>
</defs>
</svg>
