<svg width="1306" height="343" viewBox="0 0 1306 343" fill="none" xmlns="http://www.w3.org/2000/svg">
<path d="M453.06 91.4885C342.096 91.4892 101.169 45.5037 0 9.7508V112.831L1306 112.831V29.2523C1241.62 -5.34058e-05 1049.81 -22.9411 839.644 40.6309C648.132 98.5604 460.731 91.4885 453.06 91.4885Z" fill="#D1487F"/>
<rect y="94" width="1306" height="249" fill="#D1487F"/>
<path d="M1132.96 149.71L1195.99 128.101L1194.95 125.455L1171.26 64.9905C1170.5 63.0537 1169.72 61.4811 1168.94 60.2136C1168.64 59.8649 1168.34 59.4401 1168.14 59.0196C1166.86 57.2802 1165.61 56.2999 1164.46 55.8232C1162.59 55.0501 1161.01 55.6012 1160.1 56.3861C1144.64 62.5443 1112.34 75.3317 1106.85 77.2156C1103.3 78.4328 1102.98 81.2865 1103.68 83.873C1104.07 85.2896 1104.77 86.6261 1105.41 87.5697C1111.96 103.899 1125.42 137.72 1126.88 142.366C1127.09 143.038 1127.34 143.659 1127.61 144.231C1129.22 147.609 1131.75 149.272 1132.96 149.71Z" fill="#8C5666"/>
<path d="M1106.85 77.2156C1112.34 75.3317 1144.64 62.5443 1160.1 56.3861C1161.01 55.6012 1162.59 55.0501 1164.46 55.8232C1163.21 54.9573 1162.96 54.8106 1161.32 53.6771C1153.29 48.1576 1140.44 39.3897 1136.48 37.0484C1131.71 34.2264 1129.19 34.8308 1128.53 35.4858C1114.94 40.5734 1086.37 51.3987 1080.79 53.998C1075.21 56.5974 1078.36 60.2624 1080.63 61.77L1106.85 77.2156Z" fill="#733553"/>
<path d="M1126.88 142.366C1125.42 137.72 1111.96 103.899 1105.41 87.5697C1104.77 86.6261 1104.07 85.2896 1103.68 83.873L1064.35 89.216C1062.36 89.6105 1059.1 91.959 1061.91 98.1969C1064.72 104.435 1079.89 144.473 1087.12 163.713C1087.38 164.767 1089.64 165.935 1096.6 162.177C1103.56 158.419 1120.17 148.647 1127.61 144.231C1127.34 143.659 1127.09 143.038 1126.88 142.366Z" fill="#733553"/>
<path d="M1195.99 128.101L1132.96 149.71C1131.89 154.366 1128.82 165.793 1125.16 174.247C1121.51 182.701 1127.9 183.17 1131.55 182.347C1142.91 178.594 1167.7 170.293 1175.99 167.11C1184.27 163.926 1188.34 157.302 1189.33 154.389L1192.3 142.653L1192.93 140.179L1195.99 128.101Z" fill="#733553"/>
<path d="M1171.02 57.357C1175.4 58.2543 1185.33 62.3087 1189.75 64.2238L1205.96 103.249C1203.15 110.5 1197.01 125.093 1194.95 125.455L1195.99 128.101L1192.93 140.179C1199.36 137.881 1201.54 136.41 1201.82 135.961C1212.67 129.468 1220.3 123.131 1225.54 116.967C1227.84 114.253 1229.68 111.572 1231.13 108.926C1242.58 87.9726 1235.31 77.6044 1230.86 68.5607C1223.51 53.6329 1203.31 49.8114 1194.43 49.3295C1177.16 48.3926 1165.92 52.5259 1161.32 53.6771C1162.96 54.8106 1163.21 54.9573 1164.46 55.8232C1165.61 56.2999 1166.86 57.2802 1168.14 59.0196C1167.57 57.8408 1167.78 56.6957 1171.02 57.357Z" fill="#733553"/>
<path d="M1168.94 60.2136C1169.72 61.4811 1170.5 63.0537 1171.26 64.9905L1194.95 125.455C1197.01 125.093 1203.15 110.5 1205.96 103.249L1189.75 64.2238C1185.33 62.3087 1175.4 58.2543 1171.02 57.357C1167.78 56.6957 1167.57 57.8408 1168.14 59.0196C1168.4 59.3836 1168.67 59.7808 1168.94 60.2136Z" fill="#6A304C"/>
<ellipse cx="27.3654" cy="31.2134" rx="27.3654" ry="31.2134" transform="matrix(0.944857 -0.323967 0.365322 0.932249 1110.67 83.4751)" fill="#FDCFA6"/>
<ellipse cx="18.8137" cy="24.3221" rx="18.8137" ry="24.3221" transform="matrix(0.944857 -0.323967 0.365322 0.932249 1121.41 87.5063)" fill="#FDEECE"/>
<g filter="url(#filter0_f_215_282)">
<path d="M1037.09 260.02C1083.8 209.967 1124.16 166.277 1173.52 122.807L1150.44 74.1092C1084.71 79.7454 1005.8 92.0465 930.979 99.6816L1037.09 260.02Z" fill="url(#paint0_linear_215_282)" fill-opacity="0.42"/>
</g>
<path d="M1200.34 4.66602L1213.49 6.36272V80.5935H1200.79L1200.34 4.66602Z" fill="#733553"/>
<defs>
<filter id="filter0_f_215_282" x="923.479" y="66.6094" width="257.539" height="200.911" filterUnits="userSpaceOnUse" color-interpolation-filters="sRGB">
<feFlood flood-opacity="0" result="BackgroundImageFix"/>
<feBlend mode="normal" in="SourceGraphic" in2="BackgroundImageFix" result="shape"/>
<feGaussianBlur stdDeviation="3.75" result="effect1_foregroundBlur_215_282"/>
</filter>
<linearGradient id="paint0_linear_215_282" x1="1157.35" y1="77.3472" x2="1030.93" y2="226.652" gradientUnits="userSpaceOnUse">
<stop stop-color="#FDEECE" stop-opacity="0.74"/>
<stop offset="1" stop-color="#FDEECE" stop-opacity="0"/>
</linearGradient>
</defs>
</svg>
