<svg width="207" height="566" viewBox="0 0 207 566" fill="none" xmlns="http://www.w3.org/2000/svg">
<path d="M53.1464 128.262H127.159V124.941V49.0301C127.159 46.5986 126.989 44.5618 126.694 42.8623C126.527 42.3634 126.388 41.7792 126.35 41.2373C125.738 38.8291 124.835 37.2675 123.838 36.3036C122.222 34.7407 120.36 34.75 119.094 35.2713C100.591 36.2202 61.971 38.1179 55.5186 38.1179C51.3496 38.1179 49.861 41.155 49.5429 44.2856C49.3686 46.0002 49.5455 47.7429 49.8253 49.0301C49.9835 69.5892 50.2049 112.131 49.8253 117.824C49.7704 118.648 49.7744 119.429 49.8253 120.165C50.1261 124.517 52.0643 127.315 53.1464 128.262Z" fill="#8C5666"/>
<path d="M55.5186 38.1179C61.971 38.1179 100.591 36.2202 119.094 35.2713C120.36 34.75 122.222 34.7407 123.838 36.3036C122.895 34.8708 122.704 34.6165 121.457 32.7364C115.386 23.5817 105.637 9.00049 102.488 4.90697C98.6928 -0.0272156 95.8461 -0.31188 94.8972 0.162561C78.7662 0.637002 44.7962 1.77566 37.9643 2.53477C31.1323 3.29387 32.9036 8.54435 34.6432 11.0747L55.5186 38.1179Z" fill="#733553"/>
<path d="M49.8253 117.824C50.2049 112.131 49.9835 69.5892 49.8253 49.0301C49.5455 47.7429 49.3686 46.0002 49.5429 44.2856L6.65117 35.2713C4.43711 34.955 0.10388 36.315 0.483433 44.2856C0.862986 52.2562 0.325289 102.326 0.00899648 126.364C-0.149151 127.629 1.71698 129.78 10.4467 128.262C19.1764 126.743 40.3365 122.231 49.8253 120.165C49.7744 119.429 49.7704 118.648 49.8253 117.824Z" fill="#733553"/>
<path d="M127.159 128.262H53.1464C50.1416 133.006 42.3291 144.488 35.1176 152.458C27.9061 160.429 34.3269 163.37 38.4387 163.845C51.7231 164.003 80.7589 164.224 90.6272 163.845C100.496 163.465 107.391 157.677 109.605 154.83L117.442 142.969L119.094 140.469L127.159 128.262Z" fill="#733553"/>
<path d="M126.694 42.8623C126.989 44.5618 127.159 46.5986 127.159 49.0301V124.941C129.437 125.32 141.709 111.498 147.56 104.54L146.611 55.1978C142.816 51.4023 134.181 43.147 130.006 40.4901C126.928 38.5318 126.243 39.7181 126.35 41.2373C126.478 41.7411 126.593 42.2821 126.694 42.8623Z" fill="#733553"/>
<path d="M130.006 40.4901C134.181 43.147 142.816 51.4023 146.611 55.1978L147.56 104.54C141.709 111.498 129.437 125.32 127.159 124.941V128.262L119.094 140.469C126.685 140.366 129.531 139.563 130.006 139.174C143.875 136.105 154.347 131.989 162.268 127.153V80.3432C165.273 77.1802 171.472 72.7521 172.231 80.3432C172.76 85.6275 172.092 104.093 171.318 120.376C191.672 101.53 188.353 87.2972 187.413 75.5988C185.862 56.2889 165.905 46.6578 154.677 44.2856C143.756 33.6853 126.694 33.2109 121.457 32.7364C122.704 34.6165 122.895 34.8708 123.838 36.3036C124.835 37.2675 125.738 38.8291 126.35 41.2373C126.243 39.7181 126.928 38.5318 130.006 40.4901Z" fill="#5F334E"/>
<path d="M162.268 140.469C158.463 155.617 137.785 166.281 130.051 165.017L130.065 172.859C161.615 173.618 170.056 150.719 170.333 139.174C170.622 134.176 170.98 127.484 171.318 120.376C168.748 122.756 165.755 125.024 162.268 127.153V140.469Z" fill="#4C2C46"/>
<path d="M172.231 80.3432C171.472 72.7521 165.273 77.1802 162.268 80.3432V127.153C165.755 125.024 168.748 122.756 171.318 120.376C172.092 104.093 172.76 85.6275 172.231 80.3432Z" fill="#4C2C46"/>
<path d="M130.006 139.174C129.531 139.563 126.685 140.366 119.094 140.469L117.442 142.969V231.69V409.605C114.671 410.712 109.7 417.671 111.977 436.648C113.514 438.063 116.488 438.939 119.559 439.895C122.58 440.836 124.851 441.12 128.574 439.895C130.802 439.162 133.915 438.646 136.174 436.648C137.281 430.006 137.692 415.299 130.48 409.605L130.065 172.859L130.051 165.017L130.006 139.174Z" fill="#4C2C46"/>
<path d="M116.238 558.297C117.178 564.776 127.588 567.469 129.522 558.297C130.698 552.724 131.199 525.406 130.471 497.214C130.371 493.323 130.594 491.17 130.471 487.251C129.922 469.755 129.2 452.481 128.574 439.895C124.851 441.12 122.58 440.836 119.559 439.895L118.136 486.302L117.811 495.318L116.238 558.297Z" fill="#4C2C46"/>
<path d="M136.174 436.648C133.915 438.646 130.802 439.162 128.574 439.895L152.726 483.618L158.134 493.581L195.479 562.375C199.274 565.064 206.865 568.164 206.865 559.054C206.865 549.945 159.738 473.655 136.174 436.648Z" fill="#4C2C46"/>
<path d="M152.726 483.618L130.471 487.251C130.594 491.17 130.371 493.323 130.471 497.214L158.134 493.581L152.726 483.618Z" fill="#4C2C46"/>
<path d="M118.136 486.302L96.0807 481.72C94.3846 484.722 92.6787 487.736 90.9774 490.735L117.811 495.318L118.136 486.302Z" fill="#4C2C46"/>
<path d="M111.977 436.648L44.6065 544.821C43.6486 548.454 51.818 553.361 55.9931 549.565C58.5622 547.23 74.557 519.677 90.9774 490.735C92.6787 487.736 94.3846 484.722 96.0807 481.72C104.617 466.611 113.368 451.038 119.559 439.895C116.488 438.939 113.514 438.063 111.977 436.648Z" fill="#4C2C46"/>
<ellipse cx="87.2972" cy="83.0271" rx="30.3642" ry="36.532" fill="#FDCFA6"/>
<ellipse cx="87.2972" cy="83.5016" rx="20.8754" ry="28.4665" fill="#FDEECE"/>
</svg>
