<svg width="1444" height="1625" viewBox="0 0 1444 1625" fill="none" xmlns="http://www.w3.org/2000/svg">
<rect x="4" y="703" width="1440" height="792" fill="#EB3A58"/>
<path d="M503.546 1504.18C381.197 1504.18 115.549 1564.91 4 1612.12V1476L1444 1476V1586.37C1373.01 1625 1161.53 1655.29 929.795 1571.34C718.632 1494.84 512.003 1504.18 503.546 1504.18Z" fill="#EB3A58"/>
<path d="M307 459L4 509.808V738H1444V539.224L1224 459H307Z" fill="#F3577D"/>
<path d="M571.811 459L0 738H1444L931.663 459H571.811Z" fill="#EB3A58"/>
<path fill-rule="evenodd" clip-rule="evenodd" d="M242.048 132.907C248.828 123.545 252.834 111.978 252.834 99.4585C252.834 89.0487 250.064 79.2969 245.233 70.9241C250.857 81.0903 252.834 91.9166 252.834 99.4585C251.992 113.769 248.564 124.604 242.048 132.907ZM232.634 143.025C232.374 143.243 232.113 143.458 231.849 143.671C220.21 152.883 206.341 155.917 197.325 155.917C276.556 124.129 240.024 51.0655 197.325 43C207.057 43.4991 215.19 45.6329 221.957 48.849C214.534 45.1049 206.171 43 197.325 43C166.667 43 141.815 68.2773 141.815 99.4585C141.815 130.64 166.667 155.917 197.325 155.917C210.737 155.917 223.038 151.079 232.634 143.025Z" fill="#653A58"/>
<path fill-rule="evenodd" clip-rule="evenodd" d="M197.325 43C240.024 51.0655 276.556 124.129 197.325 155.917C206.341 155.917 220.21 152.883 231.849 143.671C232.113 143.458 232.374 143.243 232.634 143.025C236.165 140.061 239.33 136.661 242.048 132.907C248.564 124.604 251.992 113.769 252.834 99.4585C252.834 91.9166 250.857 81.0903 245.233 70.9241C239.769 61.4542 231.668 53.7482 221.957 48.849C215.19 45.6329 207.057 43.4991 197.325 43Z" fill="#895872"/>
<path d="M193.529 83.3274C199.569 86.9063 207.187 96.2614 200.646 108.473C214.405 98.5097 204.916 82.8529 193.529 83.3274Z" fill="#935B72"/>
<path d="M177.872 96.6115C177.113 89.4 184.356 84.9086 188.31 83.3271C183.882 83.4853 175.111 84.5979 173.602 95.6626C172.179 106.1 176.243 110.845 183.091 113.691C183.909 114.031 190.208 115.589 194.118 113.691C178.936 112.268 178.821 105.626 177.872 96.6115Z" fill="#4A263F"/>
<ellipse cx="190.683" cy="98.5096" rx="13.7588" ry="15.6566" fill="#653A58"/>
<path fill-rule="evenodd" clip-rule="evenodd" d="M163.915 138.435C169.967 130.079 173.543 119.753 173.543 108.578C173.543 99.2864 171.07 90.5817 166.758 83.1078C171.778 92.1825 173.543 101.846 173.543 108.578C172.791 121.353 169.731 131.024 163.915 138.435ZM155.512 147.467C155.28 147.661 155.046 147.854 154.811 148.044C144.422 156.267 132.042 158.975 123.994 158.975C194.718 130.6 162.108 65.3816 123.994 58.1821C132.681 58.6276 139.941 60.5323 145.981 63.4031C139.356 60.061 131.89 58.1821 123.994 58.1821C96.6283 58.1821 74.4443 80.7453 74.4443 108.578C74.4443 136.412 96.6283 158.975 123.994 158.975C135.966 158.975 146.947 154.656 155.512 147.467Z" fill="#653A58"/>
<path fill-rule="evenodd" clip-rule="evenodd" d="M123.994 58.1821C162.108 65.3816 194.718 130.6 123.994 158.975C132.042 158.975 144.422 156.267 154.811 148.044C155.046 147.854 155.28 147.661 155.512 147.467C158.664 144.821 161.488 141.786 163.915 138.435C169.731 131.024 172.791 121.353 173.543 108.578C173.543 101.846 171.778 92.1825 166.758 83.1078C161.881 74.6548 154.65 67.7763 145.981 63.4031C139.941 60.5323 132.681 58.6276 123.994 58.1821Z" fill="#895872"/>
<path d="M120.605 94.1793C125.997 97.3739 132.797 105.725 126.958 116.625C139.239 107.731 130.769 93.7558 120.605 94.1793Z" fill="#935B72"/>
<path d="M106.63 106.037C105.952 99.6 112.418 95.5909 115.947 94.1792C111.994 94.3204 104.165 95.3135 102.819 105.19C101.548 114.507 105.176 118.742 111.288 121.283C112.019 121.587 117.641 122.977 121.131 121.283C107.579 120.013 107.477 114.084 106.63 106.037Z" fill="#4A263F"/>
<ellipse cx="118.065" cy="107.731" rx="12.2814" ry="13.9754" fill="#653A58"/>
<path d="M217.251 248.433V152.122H89.6264C81.5608 152.122 80.0426 156.582 79.6631 174.421C79.4498 184.446 79.4263 198.685 79.4747 211.902C79.5124 222.206 79.5938 231.888 79.6631 238.47C80.612 245.586 81.5608 249.382 92.9474 249.382C95.5899 249.382 101.716 249.331 110.027 249.252C133.633 249.029 174.864 248.586 203.967 248.464C208.77 248.444 213.242 248.433 217.251 248.433Z" fill="#E44783"/>
<path d="M217.251 152.122V248.433C234.805 249.382 241.447 248.908 241.447 239.419C241.447 229.199 241.606 181.221 240.499 157.34C240.499 153.071 235.28 152.122 217.251 152.122Z" fill="#F96395"/>
<path d="M55.4666 211.902C51.671 196.72 55.4666 185.333 57.8388 181.538C57.2062 179.64 53.7585 176.509 45.0288 179.166C40.4426 181.696 33.1752 189.637 36.0144 202.413C38.861 215.222 49.7732 216.171 55.4666 211.902Z" fill="#5D334F"/>
<path d="M113.348 265.988L112.878 263.616L35.0655 296.827C31.7444 298.409 25.7665 303.09 28.4233 309.163C31.7444 316.754 38.3865 316.754 46.9265 312.958C53.7586 309.922 103.227 280.38 127.107 265.988H113.348Z" fill="#643955"/>
<path d="M203.967 248.464C174.864 248.586 133.633 249.029 110.027 249.252L112.878 263.616L113.348 265.988H127.107H145.136H184.989H200.171L203.967 248.464Z" fill="#4D2542"/>
<path d="M145.136 265.988V281.17C145.136 283.068 146.274 286.959 150.829 287.338C155.384 287.718 171.705 287.496 179.296 287.338C180.877 287.338 184.23 286.105 184.989 281.17C185.748 276.236 185.305 268.993 184.989 265.988H145.136Z" fill="#5F3452"/>
<path d="M137.07 308.214L27 584.338C27.9489 587.818 31.4597 593.068 37.9121 586.236C44.3645 579.404 118.093 397.838 154.15 307.909L137.07 308.214Z" fill="#552C49"/>
<path d="M154.15 307.909L150.829 621.819C151.304 625.139 159.749 625.994 161.267 621.819C162.785 617.644 169.174 410.591 172.179 307.587L154.15 307.909Z" fill="#552C49"/>
<path d="M190.208 307.265L172.179 307.587L227.689 586.236C229.112 591.454 241.447 590.791 241.447 586.236C241.447 581.681 207.288 398.357 190.208 307.265Z" fill="#552C49"/>
<path d="M79.5492 181.538H57.8388C55.4666 185.333 51.671 196.72 55.4666 211.902H79.4747C79.4368 201.571 79.4429 190.617 79.5492 181.538Z" fill="#5D334F"/>
<path d="M179.296 287.338C171.705 287.496 155.384 287.718 150.829 287.338C147.508 287.655 140.391 289.9 138.494 296.353C136.596 302.805 136.754 306.948 137.07 308.214L154.15 307.909L172.179 307.587L190.208 307.265C190.682 302.046 189.164 290.754 179.296 287.338Z" fill="#5B304D"/>
<rect x="91.5239" y="167.304" width="113.866" height="67.3706" rx="5" fill="#BB3168"/>
<rect x="120.939" y="188.179" width="48.393" height="25.6198" rx="5" fill="#9A2656"/>
<path d="M57.8389 182.011C55.9412 186.756 52.8099 199.281 55.4667 211.427C51.1966 203.361 49.7733 190.551 57.8389 182.011Z" fill="#4C2441"/>
<path d="M179.296 287.337H150.829C148.931 287.337 144.495 289.235 144.021 289.71H183.565C182.806 288.951 180.719 287.812 179.296 287.337Z" fill="#4F2641"/>
<path fill-rule="evenodd" clip-rule="evenodd" d="M328.511 152.202C319.496 152.044 299.38 152.012 291.03 153.151C289.735 153.327 288.637 153.757 287.709 154.378C282.648 157.764 283.439 166.435 283.439 171.654V226.689C283.439 235.292 287.599 238.045 290.261 238.484C290.516 238.507 290.772 238.529 291.03 238.55C302.575 238.866 326.613 239.309 330.409 238.55C334.204 237.791 335.786 231.275 336.102 228.112V164.063C336.102 156.092 331.041 152.834 328.511 152.202ZM297.672 155.523C290.84 155.523 289.448 159.318 289.607 161.216C289.29 181.301 288.658 222.799 288.658 228.112C288.658 233.426 293.402 235.387 295.774 235.703C302.733 235.862 318.263 236.083 324.715 235.703C331.168 235.324 333.097 231.117 333.255 229.061V163.114C333.255 157.8 328.194 155.839 325.664 155.523H297.672Z" fill="#AE6D80"/>
<path d="M283.439 226.689V171.654C283.439 166.435 282.648 157.764 287.709 154.378C281.661 156.157 271.439 159.699 262.361 164.063C257.707 176.322 248.307 204.978 259.476 228.981C265.532 232.286 277.543 237.347 290.261 238.484C287.599 238.045 283.439 235.292 283.439 226.689Z" fill="#68425F"/>
<path d="M247.381 223.029C249.464 223.13 251.885 224.592 253.308 225.66C244.294 196.245 252.834 172.523 257.708 166.435C253.026 168.978 248.973 171.718 246.432 174.5C241.846 184.396 235.615 207.955 247.381 223.029Z" fill="#643D5A"/>
<path d="M242.162 175.924C239.474 174.5 233.148 173.552 229.352 179.245C226.643 183.309 221.816 208.743 229.352 220.047C232.199 224.317 241.688 225.74 243.111 223.842C229.447 209.419 236.785 185.887 242.162 175.924Z" fill="#643D5A"/>
<path d="M257.708 166.435C252.834 172.523 244.294 196.245 253.308 225.66C255.206 227.083 254.753 226.403 259.476 228.981C248.307 204.978 257.707 176.322 262.361 164.063C260.765 164.83 259.204 165.622 257.708 166.435Z" fill="#4A213C"/>
<path d="M246.432 174.5L242.162 175.924C236.785 185.887 229.447 209.419 243.111 223.842C243.668 223.099 245.384 222.932 247.381 223.029C235.615 207.955 241.846 184.396 246.432 174.5Z" fill="#4A213C"/>
<path d="M289.607 161.216C289.448 159.318 290.84 155.523 297.672 155.523H325.664C328.194 155.839 333.255 157.8 333.255 163.114V229.061C333.097 231.117 331.168 235.324 324.715 235.703C318.263 236.083 302.733 235.862 295.774 235.703C293.402 235.387 288.658 233.426 288.658 228.112C288.658 222.799 289.29 181.301 289.607 161.216Z" fill="#4A213C"/>
<path d="M174.566 421.042L190.379 545.582C190.807 548.772 192.414 551.061 197.617 551.104C202.819 551.147 336.786 530.22 400.385 520.125C406.827 519.723 404.814 511.654 401.874 489.778C398.934 467.903 390.297 414.005 386.968 389.243L371.505 391.559L351.038 394.623L326.932 398.231L304.191 401.636L279.63 405.313L256.435 408.785L235.058 411.986L214.591 415.05L174.566 421.042Z" fill="#5E3451"/>
<path d="M167.995 413.574C168.975 420.865 173.047 421.246 174.566 421.042L214.591 415.05L231.987 382.237L213.757 384.687C210.904 382.62 210.365 380.864 211.287 376.668C216.738 374.495 222.824 372.071 229.344 369.475L198.737 348.88C187.524 353.473 178.577 357.15 174.561 358.87C166.664 362.251 161.134 362.531 162.053 369.367L167.995 413.574Z" fill="#5E3451"/>
<path d="M217.207 341.316L246.961 362.466C252.416 360.297 258.025 358.068 263.698 355.815L235.675 333.737C229.503 336.276 223.254 338.839 217.207 341.316Z" fill="#5E3451"/>
<path d="M274.339 317.62C268.68 320.041 261.728 322.956 254.137 326.109L283.078 348.122C291.636 344.728 300.108 341.372 308.188 338.176L277.963 316.204L274.339 317.62Z" fill="#5E3451"/>
<path d="M297.703 308.497L329.336 329.826C338.884 326.065 347.212 322.798 353.578 320.322L322.831 298.687L297.703 308.497Z" fill="#5E3451"/>
<path d="M365.137 292.411C363.033 287.114 359.216 285.177 355.894 285.778C352.572 286.379 341.395 291.439 341.395 291.439L369.773 313.092C373.256 308.111 367.532 298.44 365.137 292.411Z" fill="#5E3451"/>
<path d="M249.305 379.909L235.058 411.986L256.435 408.785L274.371 376.54L249.305 379.909Z" fill="#5E3451"/>
<path d="M295.335 373.722L279.63 405.313L304.191 401.636L319.945 370.414L295.335 373.722Z" fill="#5E3451"/>
<path d="M341.365 367.535L326.932 398.231L351.038 394.623L370.077 363.676L341.365 367.535Z" fill="#5E3451"/>
<path d="M386.968 389.243C389.485 383.801 389.6 377.754 387.919 368.701C387.684 367.437 387.321 366.416 386.858 365.596L371.505 391.559L386.968 389.243Z" fill="#5E3451"/>
<path d="M231.987 382.237L214.591 415.05L235.058 411.986L249.305 379.909L231.987 382.237Z" fill="#F6D5D7"/>
<path d="M274.371 376.54L256.435 408.785L279.63 405.313L295.335 373.722L274.371 376.54Z" fill="#EFCBCE"/>
<path d="M319.945 370.414L304.191 401.636L326.932 398.231L341.365 367.535L319.945 370.414Z" fill="#F6D5D7"/>
<path d="M376.457 362.818L370.077 363.676L351.038 394.623L371.505 391.559L386.858 365.596C384.664 361.715 380.219 362.312 376.457 362.818Z" fill="#F6D5D7"/>
<path d="M235.675 333.737L263.698 355.815C270.12 353.264 276.624 350.682 283.078 348.122L254.137 326.109C248.265 328.548 242.011 331.13 235.675 333.737Z" fill="#F6D5D7"/>
<path d="M198.737 348.88L229.344 369.475C234.938 367.248 240.853 364.895 246.961 362.466L217.207 341.316C210.699 343.982 204.426 346.549 198.737 348.88Z" fill="#F6D5D7"/>
<path d="M277.963 316.204L308.188 338.176C315.652 335.224 322.781 332.408 329.336 329.826L297.703 308.497L277.963 316.204Z" fill="#F6D5D7"/>
<path d="M353.578 320.322C360.414 317.664 365.064 316.105 366.379 315.455C368.989 314.164 369.058 314.114 369.773 313.092L341.395 291.439L322.831 298.687L353.578 320.322Z" fill="#F6D5D7"/>
<path d="M168.758 360.571C170.025 380.352 174.612 407.574 176.45 421.246C172.865 422.192 168.518 420.92 167.783 415.451L161.412 368.054C160.824 363.679 166.541 361.333 168.758 360.571Z" fill="#522441"/>
<path d="M184.599 426.646L387.37 395.678L386.573 389.753L173.715 421.613L180.944 475.39L190.439 546.03C191.174 551.499 197.961 551.36 201.262 550.607L184.599 426.646Z" fill="#522441"/>
<circle cx="179.316" cy="373.535" r="6.43775" transform="rotate(-7.65565 179.316 373.535)" fill="#F6D5D7"/>
<circle cx="183.359" cy="403.614" r="6.43775" transform="rotate(-7.65565 183.359 403.614)" fill="#F6D5D7"/>
<rect x="202.499" y="447.154" width="177.498" height="3.67872" rx="1.83936" transform="rotate(-8.65232 202.499 447.154)" fill="#D9D9D9"/>
<rect x="255.345" y="487.291" width="45.7738" height="3.67872" rx="1.83936" transform="rotate(-98.9306 255.345 487.291)" fill="#D9D9D9"/>
<rect x="335.355" y="475.116" width="45.7738" height="3.67872" rx="1.83936" transform="rotate(-98.9306 335.355 475.116)" fill="#D9D9D9"/>
<rect x="210.049" y="490.658" width="177.498" height="3.67872" rx="1.83936" transform="rotate(-8.65232 210.049 490.658)" fill="#D9D9D9"/>
<rect x="213.014" y="516.254" width="177.498" height="3.67872" rx="1.83936" transform="rotate(-8.65232 213.014 516.254)" fill="#D9D9D9"/>
<path d="M1232.15 128.262H1306.16V124.941V49.0301C1306.16 46.5986 1305.99 44.5618 1305.69 42.8623C1305.53 42.3634 1305.39 41.7792 1305.35 41.2373C1304.74 38.8291 1303.83 37.2675 1302.84 36.3036C1301.22 34.7407 1299.36 34.75 1298.09 35.2713C1279.59 36.2202 1240.97 38.1179 1234.52 38.1179C1230.35 38.1179 1228.86 41.155 1228.54 44.2856C1228.37 46.0002 1228.55 47.7429 1228.83 49.0301C1228.98 69.5892 1229.2 112.131 1228.83 117.824C1228.77 118.648 1228.77 119.429 1228.83 120.165C1229.13 124.517 1231.06 127.315 1232.15 128.262Z" fill="#8C5666"/>
<path d="M1234.52 38.1179C1240.97 38.1179 1279.59 36.2202 1298.09 35.2713C1299.36 34.75 1301.22 34.7407 1302.84 36.3036C1301.9 34.8708 1301.7 34.6165 1300.46 32.7364C1294.39 23.5817 1284.64 9.00049 1281.49 4.90697C1277.69 -0.0272156 1274.85 -0.31188 1273.9 0.162561C1257.77 0.637002 1223.8 1.77566 1216.96 2.53477C1210.13 3.29387 1211.9 8.54435 1213.64 11.0747L1234.52 38.1179Z" fill="#733553"/>
<path d="M1228.83 117.824C1229.2 112.131 1228.98 69.5892 1228.83 49.0301C1228.55 47.7429 1228.37 46.0002 1228.54 44.2856L1185.65 35.2713C1183.44 34.955 1179.1 36.315 1179.48 44.2856C1179.86 52.2562 1179.33 102.326 1179.01 126.364C1178.85 127.629 1180.72 129.78 1189.45 128.262C1198.18 126.743 1219.34 122.231 1228.83 120.165C1228.77 119.429 1228.77 118.648 1228.83 117.824Z" fill="#733553"/>
<path d="M1306.16 128.262H1232.15C1229.14 133.006 1221.33 144.488 1214.12 152.458C1206.91 160.429 1213.33 163.37 1217.44 163.845C1230.72 164.003 1259.76 164.224 1269.63 163.845C1279.5 163.465 1286.39 157.677 1288.6 154.83L1296.44 142.969L1298.09 140.469L1306.16 128.262Z" fill="#733553"/>
<path d="M1305.69 42.8623C1305.99 44.5618 1306.16 46.5986 1306.16 49.0301V124.941C1308.44 125.32 1320.71 111.498 1326.56 104.54L1325.61 55.1978C1321.82 51.4023 1313.18 43.147 1309.01 40.4901C1305.93 38.5318 1305.24 39.7181 1305.35 41.2373C1305.48 41.7411 1305.59 42.2821 1305.69 42.8623Z" fill="#733553"/>
<path d="M1309.01 40.4901C1313.18 43.147 1321.82 51.4023 1325.61 55.1978L1326.56 104.54C1320.71 111.498 1308.44 125.32 1306.16 124.941V128.262L1298.09 140.469C1305.68 140.366 1308.53 139.563 1309.01 139.174C1322.88 136.105 1333.35 131.989 1341.27 127.153V80.3432C1344.27 77.1802 1350.47 72.7521 1351.23 80.3432C1351.76 85.6275 1351.09 104.093 1350.32 120.376C1370.67 101.53 1367.35 87.2972 1366.41 75.5988C1364.86 56.2889 1344.91 46.6578 1333.68 44.2856C1322.76 33.6853 1305.69 33.2109 1300.46 32.7364C1301.7 34.6165 1301.9 34.8708 1302.84 36.3036C1303.83 37.2675 1304.74 38.8291 1305.35 41.2373C1305.24 39.7181 1305.93 38.5318 1309.01 40.4901Z" fill="#5F334E"/>
<path d="M1341.27 140.469C1337.46 155.617 1316.79 166.281 1309.05 165.017L1309.06 172.859C1340.62 173.618 1349.06 150.719 1349.33 139.174C1349.62 134.176 1349.98 127.484 1350.32 120.376C1347.75 122.756 1344.76 125.024 1341.27 127.153V140.469Z" fill="#4C2C46"/>
<path d="M1351.23 80.3432C1350.47 72.7521 1344.27 77.1802 1341.27 80.3432V127.153C1344.76 125.024 1347.75 122.756 1350.32 120.376C1351.09 104.093 1351.76 85.6275 1351.23 80.3432Z" fill="#4C2C46"/>
<path d="M1309.01 139.174C1308.53 139.563 1305.68 140.366 1298.09 140.469L1296.44 142.969V231.69V409.605C1293.67 410.712 1288.7 417.671 1290.98 436.648C1292.51 438.063 1295.49 438.939 1298.56 439.895C1301.58 440.836 1303.85 441.12 1307.57 439.895C1309.8 439.162 1312.92 438.646 1315.17 436.648C1316.28 430.006 1316.69 415.299 1309.48 409.605L1309.06 172.859L1309.05 165.017L1309.01 139.174Z" fill="#4C2C46"/>
<path d="M1295.24 558.297C1296.18 564.776 1306.59 567.469 1308.52 558.297C1309.7 552.724 1310.2 525.406 1309.47 497.214C1309.37 493.323 1309.59 491.17 1309.47 487.251C1308.92 469.755 1308.2 452.481 1307.57 439.895C1303.85 441.12 1301.58 440.836 1298.56 439.895L1297.14 486.302L1296.81 495.318L1295.24 558.297Z" fill="#4C2C46"/>
<path d="M1315.17 436.648C1312.92 438.646 1309.8 439.162 1307.57 439.895L1331.73 483.618L1337.13 493.581L1374.48 562.375C1378.27 565.064 1385.87 568.164 1385.87 559.054C1385.87 549.945 1338.74 473.655 1315.17 436.648Z" fill="#4C2C46"/>
<path d="M1331.73 483.618L1309.47 487.251C1309.59 491.17 1309.37 493.323 1309.47 497.214L1337.13 493.581L1331.73 483.618Z" fill="#4C2C46"/>
<path d="M1297.14 486.302L1275.08 481.72C1273.38 484.722 1271.68 487.736 1269.98 490.735L1296.81 495.318L1297.14 486.302Z" fill="#4C2C46"/>
<path d="M1290.98 436.648L1223.61 544.821C1222.65 548.454 1230.82 553.361 1234.99 549.565C1237.56 547.23 1253.56 519.677 1269.98 490.735C1271.68 487.736 1273.38 484.722 1275.08 481.72C1283.62 466.611 1292.37 451.038 1298.56 439.895C1295.49 438.939 1292.51 438.063 1290.98 436.648Z" fill="#4C2C46"/>
<ellipse cx="1266.3" cy="83.0271" rx="30.3642" ry="36.532" fill="#FDCFA6"/>
<ellipse cx="1266.3" cy="83.5016" rx="20.8754" ry="28.4665" fill="#FDEECE"/>
<path d="M1069.1 267.118C1068.39 266.401 1068.2 265.874 1068.15 264.746C1064.13 290.462 1063.81 303.66 1061.49 328.305H1072.91C1073.12 328.305 1073.6 328.326 1074.33 328.365C1086.81 329.032 1171.53 335.13 1214.67 338.266H1217.36C1219.74 327.989 1226.4 281.506 1227.51 274.233C1219.29 273.52 1130.37 269.541 1078.61 267.489C1075.28 267.357 1072.1 267.233 1069.1 267.118Z" fill="#FA6396"/>
<path d="M1125.23 424.118L1141.88 418.9L1142.83 411.311L1081.2 401.929C1080.5 402.53 1079.51 402.988 1078.14 403.248C1071.12 404.581 1020.77 412.482 988.23 418.9L1012.97 422.654L1083.85 433.411L1109.06 437.237L1125.75 439.77C1123.17 435.356 1120.79 426.648 1125.23 424.118Z" fill="#FA6396"/>
<path d="M1238.44 271.566C1238.24 272.858 1235.87 274.957 1227.51 274.233C1226.4 281.506 1219.74 327.989 1217.36 338.266H1230.37C1235.44 297.159 1235.01 293.838 1238.44 271.566Z" fill="#DD447D"/>
<path d="M1072.91 328.305H1061.49L968.25 337.317C961.907 339.373 962.939 350.757 969.518 350.757C978.397 350.757 979.349 350.282 980.935 350.282L980.619 400.724C983.866 399.889 987.914 399.05 992.511 398.222C992.511 397.31 991.877 364.828 991.56 348.701L1061.49 343.009L1060.06 389.576C1064.1 389.178 1067.79 388.831 1071 388.544L1074.33 328.365C1073.6 328.326 1073.12 328.305 1072.91 328.305Z" fill="#462941"/>
<path d="M988.23 418.9C987.426 419.059 986.633 419.213 985.851 419.364L1067.7 496.578C1071.3 493.217 1074.91 489.849 1078.5 486.503C1054.48 462.968 1031.04 440.163 1012.97 422.654L988.23 418.9Z" fill="#462941"/>
<path d="M1102.21 509.775L1091.93 519.438L1100.86 527.865C1104.22 524.809 1107.64 521.697 1111.11 518.544C1108.16 515.639 1105.19 512.713 1102.21 509.775Z" fill="#462941"/>
<path d="M1077.46 505.789L1088.54 496.344C1085.19 493.058 1081.84 489.773 1078.5 486.503C1074.91 489.849 1071.3 493.217 1067.7 496.578L1077.46 505.789Z" fill="#462941"/>
<path d="M990.449 575.585C988.071 579.379 992.828 585.545 999.488 581.592L1077.46 505.789L1067.7 496.578C1028.76 532.871 991.932 573.219 990.449 575.585Z" fill="#462941"/>
<path d="M1025.81 581.592C1025.97 584.438 1027.81 589.466 1033.9 586.81C1036.9 585.501 1065.74 559.77 1100.86 527.865L1091.93 519.438L1025.81 581.592Z" fill="#462941"/>
<path d="M1091.93 519.438L1102.21 509.775C1097.68 505.315 1093.11 500.828 1088.54 496.344L1077.46 505.789L1091.93 519.438Z" fill="#462941"/>
<path d="M1138.79 493.263L1129.98 483.665L1102.21 509.775C1105.19 512.713 1108.16 515.639 1111.11 518.544C1120.16 510.299 1129.49 501.777 1138.79 493.263Z" fill="#462941"/>
<path d="M1118.32 470.962L1107.63 459.322C1098.53 467.825 1088.61 477.082 1078.5 486.503C1081.84 489.773 1085.19 493.058 1088.54 496.344L1118.32 470.962Z" fill="#462941"/>
<path d="M1150.14 482.866C1147.16 479.544 1144.21 476.254 1141.31 473.016L1129.98 483.665L1138.79 493.263C1142.59 489.789 1146.38 486.317 1150.14 482.866Z" fill="#462941"/>
<path d="M1109.06 437.237L1083.85 433.411L1107.63 459.322C1111.68 455.546 1115.56 451.918 1119.23 448.491C1115.64 444.512 1112.23 440.742 1109.06 437.237Z" fill="#462941"/>
<path d="M1130.29 460.759L1118.32 470.962L1129.98 483.665L1141.31 473.016C1137.55 468.83 1133.86 464.73 1130.29 460.759Z" fill="#462941"/>
<path d="M1208.01 429.595C1200.1 431.303 1190.74 433.326 1181.37 435.356L1141.31 473.016C1144.21 476.254 1147.16 479.544 1150.14 482.866C1171.55 463.236 1192.11 444.285 1208.01 429.595Z" fill="#462941"/>
<path d="M1152.83 441.551C1146.14 443.006 1140.68 444.988 1137.13 444.988C1130.29 444.988 1128.53 444.508 1126.66 441.551C1124.31 443.752 1121.82 446.072 1119.23 448.491C1122.76 452.396 1126.46 456.503 1130.29 460.759L1152.83 441.551Z" fill="#462941"/>
<path d="M1188.98 611C1191.2 611 1195.64 609.862 1195.64 605.308C1195.64 602.719 1156.27 563.095 1111.11 518.544C1107.64 521.697 1104.22 524.809 1100.86 527.865L1188.98 611Z" fill="#462941"/>
<path d="M1229.89 592.502C1233.7 592.818 1241.02 592.122 1239.88 586.81C1239.04 582.906 1192.09 529.71 1150.14 482.866C1146.38 486.317 1142.59 489.789 1138.79 493.263L1229.89 592.502Z" fill="#462941"/>
<path d="M1229.73 263.007L1227.51 274.233C1235.87 274.957 1238.24 272.858 1238.44 271.566L1238.45 271.387L1239.72 262.059C1240.51 253.521 1230.05 256.525 1229.73 263.007Z" fill="#462941"/>
<path d="M1075.6 388.228L1071 388.544C1067.79 388.831 1064.1 389.178 1060.06 389.576C1040 391.555 1011.54 394.794 992.511 398.222C987.914 399.05 983.866 399.889 980.619 400.724C979.187 401.092 982.985 400.043 981.887 400.408C968.567 404.835 971.421 420.007 981.887 420.007C984.923 419.408 982.256 420.056 985.851 419.364C986.633 419.213 987.426 419.059 988.23 418.9C1020.77 412.482 1071.12 404.581 1078.14 403.248C1079.51 402.988 1080.5 402.53 1081.2 401.929C1084.57 399.02 1081.31 388.228 1075.6 388.228Z" fill="#462941"/>
<path d="M1068.15 264.746C1068.2 265.874 1068.39 266.401 1069.1 267.118C1072.1 267.233 1075.28 267.357 1078.61 267.489C1078.93 266.259 1079.25 261.712 1078.93 254.47C1078.61 247.355 1068.94 249.41 1068.94 255.892L1068.15 264.746Z" fill="#462941"/>
<path d="M1230.37 338.266H1217.36L1215.94 346.013L1135.7 357.239C1132.37 360.717 1127.71 368.717 1135.7 372.891L1147.83 371.215L1159.96 369.539L1214.67 361.982L1208.01 404.196L1156 415.739L1159.96 369.539L1147.83 371.215L1142.83 411.311L1141.88 418.9L1125.23 424.118C1120.79 426.648 1123.17 435.356 1125.75 439.77C1126.01 440.402 1126.31 440.999 1126.66 441.551C1128.53 444.508 1130.29 444.988 1137.13 444.988C1140.68 444.988 1146.14 443.006 1152.83 441.551C1161.16 439.736 1171.27 437.542 1181.37 435.356C1190.74 433.326 1200.1 431.303 1208.01 429.595C1211.7 428.796 1215.4 426.328 1218.31 425.699C1225.93 422.379 1228.56 413.493 1219.43 407.042L1230.37 338.266Z" fill="#462941"/>
<path d="M1107.63 459.322L1118.32 470.962L1130.29 460.759C1126.46 456.503 1122.76 452.396 1119.23 448.491C1115.56 451.918 1111.68 455.546 1107.63 459.322Z" fill="#462941"/>
</svg>
