<svg width="343" height="54" viewBox="0 0 343 54" fill="none" xmlns="http://www.w3.org/2000/svg">
<path d="M1.28446 23.6167L1.08684 50.5914C1.08684 51.2831 1.36353 51.8166 2.47018 51.9747C3.57684 52.1328 32.7056 51.511 46.5387 51.1817C47.9221 51.2805 47.7244 49.5045 47.7244 44.7617C47.7244 40.0189 47.428 28.2936 47.428 22.925L44.0686 22.9754L39.6222 23.042L34.3853 23.1205L29.4449 23.1946L24.1092 23.2746L19.07 23.3501L14.426 23.4197L9.97963 23.4863L1.28446 23.6167Z" fill="#D532A3"/>
<path d="M0.0987549 21.8381C0.0987549 23.4191 0.955099 23.6167 1.28446 23.6167L9.97963 23.4863L14.6236 16.9965H10.6713C10.1228 16.4746 10.0582 16.0851 10.3748 15.218C11.5978 14.9113 12.9632 14.5692 14.426 14.2031L8.4975 8.94085C5.97816 9.59806 3.96743 10.1251 3.06301 10.3764C1.28447 10.8704 0.0987654 10.7716 0.0987549 12.2537V21.8381Z" fill="#D532A3"/>
<path d="M12.6475 7.85891L18.3783 13.2147C19.6021 12.909 20.8605 12.5948 22.1331 12.2773L16.7974 6.77345C15.4102 7.13758 14.006 7.50449 12.6475 7.85891Z" fill="#D532A3"/>
<path d="M25.4925 4.44785C24.2182 4.80146 22.6543 5.22325 20.9474 5.67754L26.4806 11.1939C28.4003 10.716 30.3005 10.2438 32.1127 9.79448L26.305 4.25021L25.4925 4.44785Z" fill="#D532A3"/>
<path d="M30.7294 3.17401L36.8555 8.62163C38.9963 8.09393 40.8634 7.63658 42.29 7.29167L36.3615 1.80405L30.7294 3.17401Z" fill="#D532A3"/>
<path d="M45.5507 1.67863C45.2542 0.490352 44.4967 -0.0314725 43.7721 0.00146366C43.0475 0.0343998 40.5225 0.791916 40.5225 0.791916L45.9459 6.21551C46.8303 5.2545 45.888 3.03102 45.5507 1.67863Z" fill="#D532A3"/>
<path d="M18.3783 16.9965L14.426 23.4197L19.07 23.3501L23.8128 16.9965H18.3783Z" fill="#D532A3"/>
<path d="M28.358 16.9965L24.1092 23.2746L29.4449 23.1946L33.6937 16.9965H28.358Z" fill="#D532A3"/>
<path d="M38.3377 16.9965L34.3853 23.1205L39.6222 23.042L44.5626 16.9965H38.3377Z" fill="#D532A3"/>
<path d="M47.428 22.925C48.1197 21.8381 48.3173 20.5536 48.2185 18.5774C48.2047 18.3015 48.1566 18.0738 48.0813 17.8858L44.0686 22.9754L47.428 22.925Z" fill="#D532A3"/>
<path d="M14.6236 16.9965L9.97963 23.4863L14.426 23.4197L18.3783 16.9965H14.6236Z" fill="#F6D5D7"/>
<path d="M23.8128 16.9965L19.07 23.3501L24.1092 23.2746L28.358 16.9965H23.8128Z" fill="#EFCBCE"/>
<path d="M33.6937 16.9965L29.4449 23.1946L34.3853 23.1205L38.3377 16.9965H33.6937Z" fill="#F6D5D7"/>
<path d="M45.9459 16.9965H44.5626L39.6222 23.042L44.0686 22.9754L48.0813 17.8858C47.7253 16.9965 46.7615 16.9965 45.9459 16.9965Z" fill="#F6D5D7"/>
<path d="M16.7974 6.77345L22.1331 12.2773C23.5738 11.9179 25.0327 11.5543 26.4806 11.1939L20.9474 5.67754C19.6271 6.02891 18.2212 6.39972 16.7974 6.77345Z" fill="#F6D5D7"/>
<path d="M8.4975 8.94085L14.426 14.2031C15.6812 13.889 17.0081 13.5571 18.3783 13.2147L12.6475 7.85891C11.1852 8.24037 9.77589 8.60737 8.4975 8.94085Z" fill="#F6D5D7"/>
<path d="M26.305 4.25021L32.1127 9.79448C33.7867 9.37944 35.3856 8.98395 36.8555 8.62163L30.7294 3.17401L26.305 4.25021Z" fill="#F6D5D7"/>
<path d="M42.29 7.29167C43.822 6.92129 44.857 6.7224 45.1554 6.62162C45.7483 6.42144 45.7645 6.41264 45.9459 6.21551L40.5225 0.791916L36.3615 1.80405L42.29 7.29167Z" fill="#F6D5D7"/>
<path d="M1.77855 10.5725C1.48213 14.8213 1.67974 20.7498 1.67974 23.714C0.889277 23.8128 0 23.4176 0 22.2319V11.9558C0 11.0073 1.28451 10.6713 1.77855 10.5725Z" fill="#891F62"/>
<path d="M3.2607 25.0974L47.3293 24.307V23.0225L1.08691 23.7141V35.3735V50.6888C1.08691 51.8745 2.53611 52.0392 3.2607 51.9733V25.0974Z" fill="#891F62"/>
<circle cx="3.6559" cy="13.6355" r="1.38332" fill="#F6D5D7"/>
<circle cx="3.6559" cy="20.157" r="1.38332" fill="#F6D5D7"/>
<rect x="6.4856" y="29.9773" width="38.1401" height="0.790468" rx="0.395234" transform="rotate(-0.99667 6.4856 29.9773)" fill="#D9D9D9"/>
<rect x="16.5907" y="40.0376" width="9.8357" height="0.790468" rx="0.395234" transform="rotate(-91.2749 16.5907 40.0376)" fill="#D9D9D9"/>
<rect x="33.9784" y="39.7351" width="9.8357" height="0.790468" rx="0.395234" transform="rotate(-91.2749 33.9784 39.7351)" fill="#D9D9D9"/>
<rect x="6.84814" y="39.458" width="38.1401" height="0.790468" rx="0.395234" transform="rotate(-0.99667 6.84814 39.458)" fill="#D9D9D9"/>
<rect x="6.74683" y="44.9937" width="38.1401" height="0.790468" rx="0.395234" transform="rotate(-0.99667 6.74683 44.9937)" fill="#D9D9D9"/>
<path d="M84.104 24.588C84.104 27.3 82.616 29.508 79.64 31.212C81.704 32.196 82.736 33.888 82.736 36.288C82.736 38.712 81.812 40.788 79.964 42.516C77.972 44.364 75.392 45.288 72.224 45.288C70.808 45.288 69.344 45.072 67.832 44.64C66.56 44.256 65.564 43.836 64.844 43.38L68.264 28.44C68.528 27.192 68.588 26.184 68.444 25.416L73.484 23.832L72.08 29.7H72.836C74.42 29.7 75.764 29.472 76.868 29.016C77.684 28.68 78.368 28.164 78.92 27.468C79.568 26.652 79.892 25.704 79.892 24.624C79.892 22.296 78.188 21.132 74.78 21.132C71.948 21.132 69.764 22.068 68.228 23.94C67.436 24.924 66.92 25.92 66.68 26.928C66.56 27.336 66.464 28.2 66.392 29.52C65.48 28.464 65 27.912 64.952 27.864C64.376 27.096 64.088 26.412 64.088 25.812C64.088 23.628 65.096 21.78 67.112 20.268C69.2 18.66 71.876 17.856 75.14 17.856C77.924 17.856 80.156 18.54 81.836 19.908C83.348 21.18 84.104 22.74 84.104 24.588ZM78.344 36.18C78.344 34.02 77.036 32.868 74.42 32.724C73.676 32.676 72.656 32.76 71.36 32.976L69.452 41.328C70.46 41.664 71.396 41.832 72.26 41.832C74.06 41.832 75.548 41.22 76.724 39.996C77.804 38.868 78.344 37.596 78.344 36.18ZM99.3472 31.788C99.1312 32.892 98.3152 36.336 96.8992 42.12C96.6352 43.2 96.6592 44.16 96.9712 45H93.0472L93.0832 43.452C91.8352 44.7 90.3352 45.324 88.5832 45.324C87.0232 45.324 85.8232 44.94 84.9832 44.172C84.1672 43.404 83.7592 42.36 83.7592 41.04C83.7592 39.624 84.3232 38.304 85.4512 37.08C86.1712 36.312 87.0712 35.712 88.1512 35.28C88.8472 35.016 90.0592 34.68 91.7872 34.272C93.0592 33.984 93.8872 33.744 94.2712 33.552C95.0872 33.168 95.5192 32.604 95.5672 31.86C95.6152 31.068 95.0872 30.672 93.9832 30.672C93.1912 30.672 92.3272 30.912 91.3912 31.392C90.2152 31.968 89.2192 32.808 88.4032 33.912C87.8272 32.952 87.5392 32.184 87.5392 31.608C87.5392 30.504 88.3072 29.568 89.8432 28.8C91.2832 28.08 92.8792 27.72 94.6312 27.72C97.8472 27.72 99.4552 28.788 99.4552 30.924C99.4552 31.188 99.4192 31.476 99.3472 31.788ZM94.4152 36.468C93.0472 36.9 91.6912 37.344 90.3472 37.8C88.6912 38.52 87.8632 39.48 87.8632 40.68C87.8632 41.064 88.0192 41.424 88.3312 41.76C88.6672 42.072 89.0632 42.228 89.5192 42.228C90.9112 42.204 92.0392 41.628 92.9032 40.5C93.6952 39.468 94.1992 38.124 94.4152 36.468ZM111.021 30.564C109.533 30.564 108.237 31.008 107.133 31.896C106.581 32.328 106.185 32.856 105.945 33.48C105.729 33.936 105.441 34.92 105.081 36.432C104.817 37.464 104.349 39.384 103.677 42.192C103.461 43.152 103.485 44.088 103.749 45H98.8167C99.3207 44.232 99.7167 43.224 100.005 41.976C100.533 39.84 101.265 36.708 102.201 32.58C102.369 31.788 102.453 31.14 102.453 30.636C102.453 30.18 102.357 29.724 102.165 29.268L106.557 27.864L106.125 30.132C107.253 28.524 108.333 27.72 109.365 27.72C109.989 27.72 110.421 27.96 110.661 28.44C110.829 28.776 110.949 29.484 111.021 30.564ZM125.086 32.436C125.086 34.332 124.75 36.18 124.078 37.98C123.19 40.332 121.894 42.168 120.19 43.488C118.51 44.784 116.662 45.432 114.646 45.432C113.71 45.432 112.654 45.288 111.478 45C110.326 44.712 109.474 44.376 108.922 43.992L113.242 25.308C113.458 24.42 113.386 23.604 113.026 22.86L117.958 21.312L113.242 41.796C113.77 41.988 114.274 42.084 114.754 42.084C116.386 42.084 117.862 41.148 119.182 39.276C120.526 37.38 121.198 35.208 121.198 32.76C121.198 31.584 120.754 30.996 119.866 30.996C119.386 30.996 118.87 31.296 118.318 31.896C117.766 32.472 117.406 33.084 117.238 33.732C116.566 32.844 116.23 32.016 116.23 31.248C116.23 30.336 116.686 29.532 117.598 28.836C118.51 28.14 119.494 27.792 120.55 27.792C122.038 27.792 123.19 28.26 124.006 29.196C124.726 30.012 125.086 31.092 125.086 32.436ZM133.735 24.408C133.735 25.056 133.519 25.644 133.087 26.172C132.679 26.7 132.163 26.964 131.539 26.964C130.147 26.964 129.451 26.256 129.451 24.84C129.451 24.12 129.679 23.508 130.135 23.004C130.615 22.476 131.179 22.212 131.827 22.212C133.099 22.212 133.735 22.944 133.735 24.408ZM132.835 27.936L129.451 42.66C129.235 43.62 129.295 44.4 129.631 45H124.518C125.046 44.52 125.382 43.968 125.526 43.344C126.439 39.672 127.279 36.084 128.047 32.58C128.335 31.284 128.323 30.252 128.011 29.484L132.835 27.936ZM148.322 34.38L137.666 39.96C137.858 40.536 138.218 41.028 138.746 41.436C139.322 41.916 139.958 42.156 140.654 42.156C141.734 42.156 142.766 41.628 143.75 40.572C144.734 39.516 145.454 38.172 145.91 36.54C147.014 37.332 147.566 38.184 147.566 39.096C147.566 40.32 146.918 41.604 145.622 42.948C144.086 44.556 142.262 45.36 140.15 45.36C137.99 45.36 136.298 44.64 135.074 43.2C133.994 41.88 133.454 40.2 133.454 38.16C133.454 35.544 134.246 33.204 135.83 31.14C137.606 28.884 139.838 27.756 142.526 27.756C144.422 27.756 145.886 28.392 146.918 29.664C147.95 30.912 148.418 32.484 148.322 34.38ZM144.578 32.904C144.578 32.328 144.374 31.824 143.966 31.392C143.582 30.936 143.102 30.708 142.526 30.708C141.254 30.708 140.138 31.332 139.178 32.58C138.362 33.684 137.822 35.004 137.558 36.54L144.578 32.904ZM187.173 18.972C186.693 19.332 186.225 20.484 185.769 22.428L181.161 42.336C180.921 43.344 180.909 44.232 181.125 45H175.905C176.409 44.232 176.769 43.392 176.985 42.48L180.801 26.1L169.785 44.82C169.713 44.94 169.653 44.94 169.605 44.82L166.869 26.424L163.161 42.48C162.945 43.416 162.969 44.256 163.233 45H157.941C158.517 44.256 158.973 43.152 159.309 41.688L163.953 21.636C164.193 20.628 164.145 19.74 163.809 18.972H169.317L171.729 35.496L181.089 18.972H187.173ZM201.052 34.668C201.052 37.5 200.236 39.936 198.604 41.976C196.852 44.184 194.56 45.288 191.728 45.288C189.952 45.288 188.476 44.82 187.3 43.884C185.692 42.636 184.888 40.644 184.888 37.908C184.888 35.268 185.716 32.964 187.372 30.996C189.148 28.836 191.44 27.756 194.248 27.756C196.432 27.756 198.136 28.428 199.36 29.772C200.488 31.02 201.052 32.652 201.052 34.668ZM197.164 34.452C197.164 32.004 196.156 30.78 194.14 30.78C192.628 30.78 191.368 31.56 190.36 33.12C189.352 34.656 188.848 36.516 188.848 38.7C188.848 39.756 189.112 40.596 189.64 41.22C190.192 41.916 190.984 42.264 192.016 42.264C193.72 42.264 195.064 41.268 196.048 39.276C196.792 37.74 197.164 36.132 197.164 34.452ZM217.225 31.284C217.225 33.108 216.145 35.568 213.985 38.664C212.929 40.2 211.237 42.312 208.909 45H205.057C204.841 42.984 204.397 38.88 203.725 32.688C203.533 30.96 203.197 29.616 202.717 28.656H207.793C207.457 29.352 207.313 30.06 207.361 30.78L208.117 40.968C208.933 40.08 209.881 38.796 210.961 37.116C212.593 34.764 213.409 32.976 213.409 31.752C213.409 30.648 212.749 30.096 211.429 30.096C211.141 30.096 210.817 30.132 210.457 30.204C210.865 29.316 211.285 28.692 211.717 28.332C212.173 27.948 212.809 27.756 213.625 27.756C214.489 27.756 215.257 28.02 215.929 28.548C216.793 29.196 217.225 30.108 217.225 31.284ZM225.281 24.408C225.281 25.056 225.065 25.644 224.633 26.172C224.225 26.7 223.709 26.964 223.085 26.964C221.693 26.964 220.997 26.256 220.997 24.84C220.997 24.12 221.225 23.508 221.681 23.004C222.161 22.476 222.725 22.212 223.373 22.212C224.645 22.212 225.281 22.944 225.281 24.408ZM224.381 27.936L220.997 42.66C220.781 43.62 220.841 44.4 221.177 45H216.065C216.593 44.52 216.929 43.968 217.073 43.344C217.985 39.672 218.825 36.084 219.593 32.58C219.881 31.284 219.869 30.252 219.557 29.484L224.381 27.936ZM239.869 34.38L229.213 39.96C229.405 40.536 229.765 41.028 230.293 41.436C230.869 41.916 231.505 42.156 232.201 42.156C233.281 42.156 234.313 41.628 235.297 40.572C236.281 39.516 237.001 38.172 237.457 36.54C238.561 37.332 239.113 38.184 239.113 39.096C239.113 40.32 238.465 41.604 237.169 42.948C235.633 44.556 233.809 45.36 231.697 45.36C229.537 45.36 227.845 44.64 226.621 43.2C225.541 41.88 225.001 40.2 225.001 38.16C225.001 35.544 225.793 33.204 227.377 31.14C229.153 28.884 231.385 27.756 234.073 27.756C235.969 27.756 237.433 28.392 238.465 29.664C239.497 30.912 239.965 32.484 239.869 34.38ZM236.125 32.904C236.125 32.328 235.921 31.824 235.513 31.392C235.129 30.936 234.649 30.708 234.073 30.708C232.801 30.708 231.685 31.332 230.725 32.58C229.909 33.684 229.369 35.004 229.105 36.54L236.125 32.904ZM270.584 23.616L266.588 24.732C266.684 22.38 265.364 21.204 262.628 21.204C261.164 21.204 259.988 21.576 259.1 22.32C258.236 23.064 257.804 24.012 257.804 25.164C257.804 25.788 258.044 26.316 258.524 26.748C258.788 26.988 259.472 27.456 260.576 28.152C261.416 28.632 262.796 29.436 264.716 30.564C267.164 32.052 268.388 34.092 268.388 36.684C268.388 39.108 267.536 41.148 265.832 42.804C264.128 44.46 261.932 45.288 259.244 45.288C256.796 45.288 254.636 44.676 252.764 43.452C250.916 42.204 249.992 40.848 249.992 39.384C249.992 38.4 250.556 37.14 251.684 35.604C252.188 37.692 253.244 39.3 254.852 40.428C256.196 41.34 257.672 41.784 259.28 41.76C260.648 41.736 261.824 41.304 262.808 40.464C263.816 39.6 264.32 38.532 264.32 37.26C264.32 36.228 263.66 35.268 262.34 34.38C262.268 34.332 260.84 33.468 258.056 31.788C256.544 30.876 255.524 30.084 254.996 29.412C254.204 28.404 253.808 27.084 253.808 25.452C253.808 23.244 254.624 21.432 256.256 20.016C257.888 18.576 259.928 17.856 262.376 17.856C264.68 17.856 266.576 18.444 268.064 19.62C269.36 20.652 270.2 21.984 270.584 23.616ZM280.795 27.9C280.507 28.74 280.219 29.52 279.931 30.24C279.547 31.2 278.743 31.68 277.519 31.68H276.367C276.247 32.328 275.575 35.112 274.351 40.032C274.279 40.272 274.243 40.512 274.243 40.752C274.243 41.64 274.615 42.156 275.359 42.3C276.007 42.444 276.859 42.384 277.915 42.12C277.435 43.152 277.183 43.692 277.159 43.74C276.823 44.364 276.427 44.784 275.971 45C275.539 45.216 274.999 45.324 274.351 45.324C273.151 45.324 272.179 44.988 271.435 44.316C270.715 43.644 270.355 42.744 270.355 41.616C270.355 41.232 270.403 40.836 270.499 40.428L272.551 31.68H270.859L271.651 28.62H273.271L274.171 24.516L278.275 23.292L277.015 28.62H278.131C279.139 28.62 280.027 28.38 280.795 27.9ZM295.785 28.008L292.509 42.12C292.317 42.936 292.305 43.896 292.473 45H288.369L288.765 43.128C287.853 43.896 287.265 44.352 287.001 44.496C286.065 45.048 284.997 45.324 283.797 45.324C282.837 45.324 281.973 45.084 281.205 44.604C280.245 43.98 279.765 43.08 279.765 41.904C279.765 41.592 279.861 41.04 280.053 40.248C280.317 39.216 280.989 36.288 282.069 31.464C282.189 30.888 282.153 30.252 281.961 29.556L286.569 28.08L283.761 40.32C283.689 40.656 283.653 40.944 283.653 41.184C283.653 41.976 284.145 42.372 285.129 42.372C285.561 42.372 286.101 42.204 286.749 41.868C287.421 41.508 287.997 41.064 288.477 40.536C289.077 39.864 289.605 38.556 290.061 36.612C290.565 34.428 290.949 32.652 291.213 31.284C291.357 30.588 291.345 29.988 291.177 29.484L295.785 28.008ZM313.579 21.312L308.359 43.92C306.823 44.952 305.095 45.468 303.175 45.468C300.991 45.468 299.299 44.808 298.099 43.488C296.899 42.144 296.299 40.332 296.299 38.052C296.299 35.244 297.127 32.796 298.783 30.708C300.343 28.74 302.047 27.756 303.895 27.756C304.903 27.756 305.719 27.984 306.343 28.44C306.967 28.896 307.279 29.424 307.279 30.024C307.279 30.696 306.847 31.584 305.983 32.688C305.743 31.632 305.131 31.104 304.147 31.104C303.067 31.104 302.119 31.92 301.303 33.552C300.535 35.088 300.151 36.756 300.151 38.556C300.151 39.756 300.427 40.68 300.979 41.328C301.531 41.976 302.251 42.3 303.139 42.3C303.811 42.3 304.459 42.144 305.083 41.832L308.899 25.236C309.115 24.276 309.103 23.472 308.863 22.824L313.579 21.312ZM320.027 24.408C320.027 25.056 319.811 25.644 319.379 26.172C318.971 26.7 318.455 26.964 317.831 26.964C316.439 26.964 315.743 26.256 315.743 24.84C315.743 24.12 315.971 23.508 316.427 23.004C316.907 22.476 317.471 22.212 318.119 22.212C319.391 22.212 320.027 22.944 320.027 24.408ZM319.127 27.936L315.743 42.66C315.527 43.62 315.587 44.4 315.923 45H310.811C311.339 44.52 311.675 43.968 311.819 43.344C312.731 39.672 313.571 36.084 314.339 32.58C314.627 31.284 314.615 30.252 314.303 29.484L319.127 27.936ZM335.911 34.668C335.911 37.5 335.095 39.936 333.463 41.976C331.711 44.184 329.419 45.288 326.587 45.288C324.811 45.288 323.335 44.82 322.159 43.884C320.551 42.636 319.747 40.644 319.747 37.908C319.747 35.268 320.575 32.964 322.231 30.996C324.007 28.836 326.299 27.756 329.107 27.756C331.291 27.756 332.995 28.428 334.219 29.772C335.347 31.02 335.911 32.652 335.911 34.668ZM332.023 34.452C332.023 32.004 331.015 30.78 328.999 30.78C327.487 30.78 326.227 31.56 325.219 33.12C324.211 34.656 323.707 36.516 323.707 38.7C323.707 39.756 323.971 40.596 324.499 41.22C325.051 41.916 325.843 42.264 326.875 42.264C328.579 42.264 329.923 41.268 330.907 39.276C331.651 37.74 332.023 36.132 332.023 34.452Z" fill="#DF1683"/>
</svg>
