<svg width="49" height="52" viewBox="0 0 49 52" fill="none" xmlns="http://www.w3.org/2000/svg">
<path d="M1.28446 23.6167L1.08684 50.5914C1.08684 51.2831 1.36353 51.8166 2.47018 51.9747C3.57684 52.1328 32.7056 51.511 46.5387 51.1817C47.9221 51.2805 47.7244 49.5045 47.7244 44.7617C47.7244 40.0189 47.428 28.2936 47.428 22.925L44.0686 22.9754L39.6222 23.042L34.3853 23.1205L29.4449 23.1946L24.1092 23.2746L19.07 23.3501L14.426 23.4197L9.97963 23.4863L1.28446 23.6167Z" fill="#D532A3"/>
<path d="M0.0987549 21.8381C0.0987549 23.4191 0.955099 23.6167 1.28446 23.6167L9.97963 23.4863L14.6236 16.9965H10.6713C10.1228 16.4746 10.0582 16.0851 10.3748 15.218C11.5978 14.9113 12.9632 14.5692 14.426 14.2031L8.4975 8.94085C5.97816 9.59806 3.96743 10.1251 3.06301 10.3764C1.28447 10.8704 0.0987654 10.7716 0.0987549 12.2537V21.8381Z" fill="#D532A3"/>
<path d="M12.6475 7.85891L18.3783 13.2147C19.6021 12.909 20.8605 12.5948 22.1331 12.2773L16.7974 6.77345C15.4102 7.13758 14.006 7.50449 12.6475 7.85891Z" fill="#D532A3"/>
<path d="M25.4925 4.44785C24.2182 4.80146 22.6543 5.22325 20.9474 5.67754L26.4806 11.1939C28.4003 10.716 30.3005 10.2438 32.1127 9.79448L26.305 4.25021L25.4925 4.44785Z" fill="#D532A3"/>
<path d="M30.7294 3.17401L36.8555 8.62163C38.9963 8.09393 40.8634 7.63658 42.29 7.29167L36.3615 1.80405L30.7294 3.17401Z" fill="#D532A3"/>
<path d="M45.5507 1.67863C45.2542 0.490352 44.4967 -0.0314725 43.7721 0.00146366C43.0475 0.0343998 40.5225 0.791916 40.5225 0.791916L45.9459 6.21551C46.8303 5.2545 45.888 3.03102 45.5507 1.67863Z" fill="#D532A3"/>
<path d="M18.3783 16.9965L14.426 23.4197L19.07 23.3501L23.8128 16.9965H18.3783Z" fill="#D532A3"/>
<path d="M28.358 16.9965L24.1092 23.2746L29.4449 23.1946L33.6937 16.9965H28.358Z" fill="#D532A3"/>
<path d="M38.3377 16.9965L34.3853 23.1205L39.6222 23.042L44.5626 16.9965H38.3377Z" fill="#D532A3"/>
<path d="M47.428 22.925C48.1197 21.8381 48.3173 20.5536 48.2185 18.5774C48.2047 18.3015 48.1566 18.0738 48.0813 17.8858L44.0686 22.9754L47.428 22.925Z" fill="#D532A3"/>
<path d="M14.6236 16.9965L9.97963 23.4863L14.426 23.4197L18.3783 16.9965H14.6236Z" fill="#F6D5D7"/>
<path d="M23.8128 16.9965L19.07 23.3501L24.1092 23.2746L28.358 16.9965H23.8128Z" fill="#EFCBCE"/>
<path d="M33.6937 16.9965L29.4449 23.1946L34.3853 23.1205L38.3377 16.9965H33.6937Z" fill="#F6D5D7"/>
<path d="M45.9459 16.9965H44.5626L39.6222 23.042L44.0686 22.9754L48.0813 17.8858C47.7253 16.9965 46.7615 16.9965 45.9459 16.9965Z" fill="#F6D5D7"/>
<path d="M16.7974 6.77345L22.1331 12.2773C23.5738 11.9179 25.0327 11.5543 26.4806 11.1939L20.9474 5.67754C19.6271 6.02891 18.2212 6.39972 16.7974 6.77345Z" fill="#F6D5D7"/>
<path d="M8.4975 8.94085L14.426 14.2031C15.6812 13.889 17.0081 13.5571 18.3783 13.2147L12.6475 7.85891C11.1852 8.24037 9.77589 8.60737 8.4975 8.94085Z" fill="#F6D5D7"/>
<path d="M26.305 4.25021L32.1127 9.79448C33.7867 9.37944 35.3856 8.98395 36.8555 8.62163L30.7294 3.17401L26.305 4.25021Z" fill="#F6D5D7"/>
<path d="M42.29 7.29167C43.822 6.92129 44.857 6.7224 45.1554 6.62162C45.7483 6.42144 45.7645 6.41264 45.9459 6.21551L40.5225 0.791916L36.3615 1.80405L42.29 7.29167Z" fill="#F6D5D7"/>
<path d="M1.77855 10.5725C1.48213 14.8213 1.67974 20.7498 1.67974 23.714C0.889277 23.8128 0 23.4176 0 22.2319V11.9558C0 11.0073 1.28451 10.6713 1.77855 10.5725Z" fill="#891F62"/>
<path d="M3.2607 25.0974L47.3293 24.307V23.0225L1.08691 23.7141V35.3735V50.6888C1.08691 51.8745 2.53611 52.0392 3.2607 51.9733V25.0974Z" fill="#891F62"/>
<circle cx="3.6559" cy="13.6355" r="1.38332" fill="#F6D5D7"/>
<circle cx="3.6559" cy="20.157" r="1.38332" fill="#F6D5D7"/>
<rect x="6.4856" y="29.9773" width="38.1401" height="0.790468" rx="0.395234" transform="rotate(-0.99667 6.4856 29.9773)" fill="#D9D9D9"/>
<rect x="16.5907" y="40.0376" width="9.8357" height="0.790468" rx="0.395234" transform="rotate(-91.2749 16.5907 40.0376)" fill="#D9D9D9"/>
<rect x="33.9784" y="39.7351" width="9.8357" height="0.790468" rx="0.395234" transform="rotate(-91.2749 33.9784 39.7351)" fill="#D9D9D9"/>
<rect x="6.84814" y="39.458" width="38.1401" height="0.790468" rx="0.395234" transform="rotate(-0.99667 6.84814 39.458)" fill="#D9D9D9"/>
<rect x="6.74683" y="44.9937" width="38.1401" height="0.790468" rx="0.395234" transform="rotate(-0.99667 6.74683 44.9937)" fill="#D9D9D9"/>
</svg>
